<svg version="1.1" id="Layer_1" xmlns="http://www.w3.org/2000/svg" xmlns:xlink="http://www.w3.org/1999/xlink" x="0px" y="0px"
	 width="100%" viewBox="0 0 280 280" enable-background="new 0 0 280 280" xml:space="preserve">
<path fill="#000001" opacity="1.000000" stroke="none" 
	d="
M1.000000,96.000000 
	C1.000000,64.000015 1.000000,32.500027 1.000000,1.000030 
	C94.333282,1.000020 187.666565,1.000020 280.999878,1.000010 
	C280.999939,94.333244 280.999939,187.666489 280.999969,280.999817 
	C187.666794,280.999878 94.333595,280.999878 1.000195,280.999939 
	C1.000000,219.500000 1.000000,158.000000 1.000000,96.000000 
M152.571411,3.524231 
	C151.363144,3.620706 150.154877,3.717181 148.023819,3.838659 
	C143.694229,3.884182 139.364655,3.929706 134.474319,3.409753 
	C130.977966,3.647569 127.481621,3.885386 123.156525,4.145723 
	C117.440308,5.480684 111.724091,6.815644 105.226562,8.132147 
	C99.333664,10.334975 93.440765,12.537804 86.827362,14.738998 
	C82.483986,16.975801 78.140617,19.212605 73.136345,21.752972 
	C68.704498,24.751247 64.272659,27.749523 59.192677,30.983553 
	C55.114323,34.346867 51.035973,37.710186 46.311684,41.237354 
	C41.793457,46.785061 37.275230,52.332771 32.156860,58.167137 
	C27.982082,64.478600 23.807306,70.790054 19.112246,77.672775 
	C18.500414,79.380821 18.069412,81.181625 17.248386,82.782372 
	C10.128529,96.663872 6.614222,111.678169 5.235909,126.955070 
	C4.264771,137.718918 5.224884,148.748917 6.231194,159.575638 
	C7.444269,172.626862 10.782419,185.249496 17.097759,197.687744 
	C20.762863,204.108307 24.427967,210.528870 28.279156,217.610580 
	C33.170273,223.784500 38.061386,229.958420 43.256523,236.728241 
	C47.845467,240.482132 52.434410,244.236038 57.303806,248.602432 
	C63.884735,252.961334 70.465668,257.320221 77.630714,262.119934 
	C84.366295,264.924957 91.101875,267.729980 98.415909,270.928619 
	C103.617157,272.216553 108.818413,273.504486 114.811089,274.997009 
	C119.876167,275.943420 124.941246,276.889832 130.926834,277.967621 
	C135.285645,277.923401 139.644455,277.879181 144.912750,277.808777 
	C149.942902,277.153168 154.973053,276.497559 160.864929,275.976868 
	C165.897705,274.980743 170.930481,273.984650 176.776001,272.997162 
	C180.856812,271.684296 184.937622,270.371429 189.752655,268.980835 
	C194.174561,266.997009 198.596466,265.013184 203.714706,262.928650 
	C209.827942,258.962341 215.941177,254.996048 222.721466,250.837357 
	C227.512695,246.644073 232.303940,242.450806 237.719009,237.954865 
	C242.154022,232.664062 246.589050,227.373260 251.622986,221.717880 
	C255.747528,214.811768 259.872101,207.905670 264.524536,200.511292 
	C266.382843,196.376205 268.749908,192.387939 269.994415,188.075714 
	C272.649078,178.877029 275.403412,169.619019 276.905609,160.192291 
	C281.514984,131.267624 276.062958,103.857063 263.027313,77.093750 
	C258.025055,69.709145 253.022781,62.324543 247.914047,54.264545 
	C241.937210,48.192806 235.960373,42.121067 229.719131,35.417107 
	C223.480804,31.314089 217.242462,27.211075 210.371201,22.825724 
	C204.596771,19.838099 198.822357,16.850473 192.731262,13.228280 
	C188.472992,11.819059 184.214706,10.409838 179.392548,8.522507 
	C173.866852,7.252974 168.341156,5.983441 162.045944,4.529344 
	C159.257889,4.252460 156.469818,3.975576 153.465881,3.540964 
	C153.465881,3.540964 153.278152,3.731302 152.571411,3.524231 
z"/>
<path fill="#4BA9F4" opacity="1.000000" stroke="none" 
	d="
M263.091583,77.791344 
	C276.062958,103.857063 281.514984,131.267624 276.905609,160.192291 
	C275.403412,169.619019 272.649078,178.877029 269.994415,188.075714 
	C268.749908,192.387939 266.382843,196.376205 264.062927,200.425354 
	C263.067017,195.655975 262.632568,190.958008 261.953796,186.295593 
	C261.643097,184.161484 260.851562,182.097382 260.376984,179.648376 
	C268.704681,152.813309 268.511475,126.382904 260.226013,99.702820 
	C260.973541,96.387894 261.613312,93.388451 261.967651,90.355652 
	C262.455322,86.180756 262.727234,81.980652 263.091583,77.791344 
z"/>
<path fill="#0432D1" opacity="1.000000" stroke="none" 
	d="
M16.994801,196.951569 
	C10.782419,185.249496 7.444269,172.626862 6.231194,159.575638 
	C5.224884,148.748917 4.264771,137.718918 5.235909,126.955070 
	C6.614222,111.678169 10.128529,96.663872 17.248386,82.782372 
	C18.069412,81.181625 18.500414,79.380821 19.492672,77.856186 
	C20.248552,83.654755 20.494989,89.283310 21.075417,94.877197 
	C21.257572,96.632744 22.337889,98.295090 23.001614,100.389297 
	C16.842121,117.478989 15.756891,134.796127 17.113798,152.319336 
	C17.700495,159.895966 19.102234,167.409485 19.886011,175.289825 
	C19.425110,179.744720 19.403269,183.883377 18.935539,187.971008 
	C18.589071,190.998901 17.662788,193.960464 16.994801,196.951569 
z"/>
<path fill="#48A4F4" opacity="1.000000" stroke="none" 
	d="
M263.059448,77.442551 
	C262.727234,81.980652 262.455322,86.180756 261.967651,90.355652 
	C261.613312,93.388451 260.973541,96.387894 259.993896,99.429062 
	C254.634064,89.319954 249.741379,79.183998 245.211563,68.889015 
	C246.048660,66.902077 246.654755,65.096275 246.966064,63.241016 
	C247.427261,60.492401 247.679398,57.708702 248.020538,54.939934 
	C253.022781,62.324543 258.025055,69.709145 263.059448,77.442551 
z"/>
<path fill="#0738D6" opacity="1.000000" stroke="none" 
	d="
M23.007103,100.000099 
	C22.337889,98.295090 21.257572,96.632744 21.075417,94.877197 
	C20.494989,89.283310 20.248552,83.654755 19.752813,77.570557 
	C23.807306,70.790054 27.982082,64.478600 32.717499,58.350792 
	C33.521923,60.805130 33.467506,63.162739 34.096638,65.321106 
	C34.680252,67.323311 35.993935,69.112717 36.930668,71.341217 
	C32.252487,81.124435 27.629795,90.562271 23.007103,100.000099 
z"/>
<path fill="#449CF2" opacity="1.000000" stroke="none" 
	d="
M247.967285,54.602242 
	C247.679398,57.708702 247.427261,60.492401 246.966064,63.241016 
	C246.654755,65.096275 246.048660,66.902077 244.919159,68.733734 
	C238.494400,62.163223 232.724945,55.588966 227.308929,48.856171 
	C228.107254,47.047321 228.677505,45.418709 228.967728,43.741634 
	C229.408417,41.195194 229.654709,38.615116 229.983551,36.049324 
	C235.960373,42.121067 241.937210,48.192806 247.967285,54.602242 
z"/>
<path fill="#48A4F4" opacity="1.000000" stroke="none" 
	d="
M260.278107,180.001541 
	C260.851562,182.097382 261.643097,184.161484 261.953796,186.295593 
	C262.632568,190.958008 263.067017,195.655975 263.798950,200.669495 
	C259.872101,207.905670 255.747528,214.811768 251.240082,221.485901 
	C250.572128,219.338715 250.223145,217.430405 250.015991,215.506821 
	C249.639511,212.010880 249.347351,208.505844 249.075806,204.652618 
	C252.847107,196.200928 256.562592,188.101242 260.278107,180.001541 
z"/>
<path fill="#0636D4" opacity="1.000000" stroke="none" 
	d="
M17.046280,197.319656 
	C17.662788,193.960464 18.589071,190.998901 18.935539,187.971008 
	C19.403269,183.883377 19.425110,179.744720 20.220184,175.414520 
	C24.523958,183.803741 28.245832,192.406433 31.620182,201.173416 
	C30.848051,203.181396 30.378895,205.016159 30.008575,206.870667 
	C29.338945,210.224045 28.728325,213.589203 28.093069,216.949432 
	C24.427967,210.528870 20.762863,204.108307 17.046280,197.319656 
z"/>
<path fill="#3E94F0" opacity="1.000000" stroke="none" 
	d="
M229.851349,35.733215 
	C229.654709,38.615116 229.408417,41.195194 228.967728,43.741634 
	C228.677505,45.418709 228.107254,47.047321 226.989395,48.753708 
	C220.817688,44.359848 215.318970,39.909912 209.855698,34.983322 
	C210.262146,30.707132 210.633148,26.907595 211.004135,23.108059 
	C217.242462,27.211075 223.480804,31.314089 229.851349,35.733215 
z"/>
<path fill="#0E44D9" opacity="1.000000" stroke="none" 
	d="
M57.023361,247.989929 
	C52.434410,244.236038 47.845467,240.482132 43.115425,235.957367 
	C42.982780,232.729141 42.712017,230.228394 43.085373,227.827805 
	C43.401169,225.797318 44.462872,223.882828 45.540382,221.929428 
	C51.393738,227.227493 56.901176,232.513138 62.068764,238.023193 
	C61.150272,240.158432 60.768391,242.161209 59.931751,243.951492 
	C59.241657,245.428192 58.013233,246.653320 57.023361,247.989929 
z"/>
<path fill="#0A3CD6" opacity="1.000000" stroke="none" 
	d="
M45.194466,221.917007 
	C44.462872,223.882828 43.401169,225.797318 43.085373,227.827805 
	C42.712017,230.228394 42.982780,232.729141 42.963417,235.659409 
	C38.061386,229.958420 33.170273,223.784500 28.186111,217.279999 
	C28.728325,213.589203 29.338945,210.224045 30.008575,206.870667 
	C30.378895,205.016159 30.848051,203.181396 31.871603,201.407654 
	C34.608601,204.995377 36.718246,208.530869 38.892899,212.025909 
	C40.958046,215.344955 43.091209,218.621674 45.194466,221.917007 
z"/>
<path fill="#1955DD" opacity="1.000000" stroke="none" 
	d="
M97.837456,270.535004 
	C91.101875,267.729980 84.366295,264.924957 77.508141,261.554504 
	C77.919579,257.015137 78.453590,253.041214 79.344170,249.094498 
	C86.607864,252.341797 93.514992,255.561905 100.076004,259.014374 
	C99.099075,263.009491 98.468262,266.772247 97.837456,270.535004 
z"/>
<path fill="#3C8FEE" opacity="1.000000" stroke="none" 
	d="
M222.054413,251.029755 
	C215.941177,254.996048 209.827942,258.962341 203.331238,262.562012 
	C202.633774,258.157562 202.319763,254.119736 202.273132,249.865906 
	C208.365387,245.844406 214.190247,242.038895 220.106171,238.620758 
	C220.816299,243.015335 221.435349,247.022552 222.054413,251.029755 
z"/>
<path fill="#144CDA" opacity="1.000000" stroke="none" 
	d="
M78.987610,249.067307 
	C78.453590,253.041214 77.919579,257.015137 77.216080,261.334106 
	C70.465668,257.320221 63.884735,252.961334 57.163582,248.296173 
	C58.013233,246.653320 59.241657,245.428192 59.931751,243.951492 
	C60.768391,242.161209 61.150272,240.158432 62.390358,238.103210 
	C68.363739,241.661652 73.675674,245.364471 78.987610,249.067307 
z"/>
<path fill="#4299F2" opacity="1.000000" stroke="none" 
	d="
M222.387939,250.933563 
	C221.435349,247.022552 220.816299,243.015335 220.363342,238.395172 
	C225.681961,232.838928 230.834473,227.895660 236.020157,223.374298 
	C236.400604,228.616653 236.747894,233.437088 237.095184,238.257538 
	C232.303940,242.450806 227.512695,246.644073 222.387939,250.933563 
z"/>
<path fill="#45A0F4" opacity="1.000000" stroke="none" 
	d="
M237.407104,238.106201 
	C236.747894,233.437088 236.400604,228.616653 236.168640,223.074280 
	C240.529327,216.569778 244.774673,210.787201 249.020020,205.004608 
	C249.347351,208.505844 249.639511,212.010880 250.015991,215.506821 
	C250.223145,217.430405 250.572128,219.338715 250.940613,221.668182 
	C246.589050,227.373260 242.154022,232.664062 237.407104,238.106201 
z"/>
<path fill="#398AEC" opacity="1.000000" stroke="none" 
	d="
M210.687668,22.966890 
	C210.633148,26.907595 210.262146,30.707132 209.516281,34.856651 
	C203.430420,32.080116 197.719406,28.953608 192.006989,25.383509 
	C192.353012,21.247564 192.700470,17.555206 193.047928,13.862848 
	C198.822357,16.850473 204.596771,19.838099 210.687668,22.966890 
z"/>
<path fill="#0B3FD8" opacity="1.000000" stroke="none" 
	d="
M36.986156,70.995819 
	C35.993935,69.112717 34.680252,67.323311 34.096638,65.321106 
	C33.467506,63.162739 33.521923,60.805130 33.017570,58.207462 
	C37.275230,52.332771 41.793457,46.785061 46.646645,41.615669 
	C47.479897,46.951065 47.978191,51.908138 48.321918,57.139244 
	C44.440285,61.940788 40.713219,66.468300 36.986156,70.995819 
z"/>
<path fill="#2161DF" opacity="1.000000" stroke="none" 
	d="
M106.007874,8.150604 
	C111.724091,6.815644 117.440308,5.480684 123.576614,4.584800 
	C123.996513,8.867638 123.996315,12.711399 123.590340,16.691563 
	C117.461723,17.902418 111.738892,18.976871 106.011917,19.589691 
	C106.007812,15.468908 106.007843,11.809756 106.007874,8.150604 
z"/>
<path fill="#1B59DD" opacity="1.000000" stroke="none" 
	d="
M105.617218,8.141376 
	C106.007843,11.809756 106.007812,15.468908 105.735596,19.810165 
	C100.324211,22.382008 95.185028,24.271742 90.008522,25.739910 
	C89.163422,21.792439 88.355644,18.266535 87.547867,14.740632 
	C93.440765,12.537804 99.333664,10.334975 105.617218,8.141376 
z"/>
<path fill="#0E44D9" opacity="1.000000" stroke="none" 
	d="
M48.476486,56.865215 
	C47.978191,51.908138 47.479897,46.951065 46.969612,41.533745 
	C51.035973,37.710186 55.114323,34.346867 59.626186,31.283432 
	C60.386555,35.765167 60.713413,39.947021 60.886520,44.420635 
	C56.647339,48.763336 52.561913,52.814274 48.476486,56.865215 
z"/>
<path fill="#1E5EDF" opacity="1.000000" stroke="none" 
	d="
M98.126678,270.731812 
	C98.468262,266.772247 99.099075,263.009491 100.444458,259.075439 
	C106.677559,260.454895 112.196091,262.005646 117.357491,263.793701 
	C116.006798,267.618103 115.013229,271.205261 114.019669,274.792389 
	C108.818413,273.504486 103.617157,272.216553 98.126678,270.731812 
z"/>
<path fill="#1751DA" opacity="1.000000" stroke="none" 
	d="
M87.187614,14.739815 
	C88.355644,18.266535 89.163422,21.792439 89.782990,25.994358 
	C84.749374,29.174997 79.903976,31.679619 74.971275,33.763840 
	C74.521729,29.378763 74.159485,25.414085 73.797241,21.449408 
	C78.140617,19.212605 82.483986,16.975801 87.187614,14.739815 
z"/>
<path fill="#2B73E8" opacity="1.000000" stroke="none" 
	d="
M160.003204,275.841949 
	C154.973053,276.497559 149.942902,277.153168 144.457230,277.371094 
	C144.002029,273.011047 144.002335,269.088684 144.464386,265.098328 
	C149.874908,264.802704 154.823700,264.575104 159.817749,264.841553 
	C159.909760,268.837708 159.956482,272.339813 160.003204,275.841949 
z"/>
<path fill="#144CDA" opacity="1.000000" stroke="none" 
	d="
M73.466797,21.601189 
	C74.159485,25.414085 74.521729,29.378763 74.780266,34.034958 
	C70.131134,37.860611 65.585701,40.994743 61.040272,44.128876 
	C60.713413,39.947021 60.386555,35.765167 59.950256,31.165554 
	C64.272659,27.749523 68.704498,24.751247 73.466797,21.601189 
z"/>
<path fill="#3482EB" opacity="1.000000" stroke="none" 
	d="
M192.889587,13.545565 
	C192.700470,17.555206 192.353012,21.247564 191.645508,25.341583 
	C186.518707,23.845676 181.751953,21.948109 176.987244,19.599243 
	C177.918823,15.748103 174.704239,11.136490 179.956436,9.000616 
	C184.214706,10.409838 188.472992,11.819059 192.889587,13.545565 
z"/>
<path fill="#286EE4" opacity="1.000000" stroke="none" 
	d="
M135.035065,3.975229 
	C139.364655,3.929706 143.694229,3.884182 148.495850,4.292440 
	C148.981277,8.360562 148.994690,11.974902 148.544189,15.648636 
	C143.059616,15.702253 138.038925,15.696478 133.014557,15.252400 
	C133.685593,11.201142 134.360321,7.588185 135.035065,3.975229 
z"/>
<path fill="#307AE7" opacity="1.000000" stroke="none" 
	d="
M160.434067,275.909424 
	C159.956482,272.339813 159.909760,268.837708 160.174530,264.721741 
	C165.327469,263.177368 170.168930,262.246826 175.009491,261.752380 
	C175.326813,265.788483 175.645035,269.388519 175.963257,272.988525 
	C170.930481,273.984650 165.897705,274.980743 160.434067,275.909424 
z"/>
<path fill="#2366E3" opacity="1.000000" stroke="none" 
	d="
M114.415375,274.894714 
	C115.013229,271.205261 116.006798,267.618103 117.757523,263.803345 
	C122.678444,264.105469 126.842209,264.635223 130.915009,265.557312 
	C130.551468,269.911896 130.278885,273.874054 130.006317,277.836243 
	C124.941246,276.889832 119.876167,275.943420 114.415375,274.894714 
z"/>
<path fill="#3482EB" opacity="1.000000" stroke="none" 
	d="
M176.369629,272.992859 
	C175.645035,269.388519 175.326813,265.788483 175.346756,261.582397 
	C180.061371,259.476410 184.437805,257.976440 188.851959,256.969604 
	C188.932587,261.327972 188.975510,265.193268 189.018433,269.058533 
	C184.937622,270.371429 180.856812,271.684296 176.369629,272.992859 
z"/>
<path fill="#307AE7" opacity="1.000000" stroke="none" 
	d="
M179.674500,8.761562 
	C174.704239,11.136490 177.918823,15.748103 176.580322,19.605778 
	C171.781815,19.024771 167.392258,17.985937 163.001587,16.485689 
	C162.938797,12.254152 162.877121,8.484031 162.815460,4.713908 
	C168.341156,5.983441 173.866852,7.252974 179.674500,8.761562 
z"/>
<path fill="#266DE8" opacity="1.000000" stroke="none" 
	d="
M130.466583,277.901917 
	C130.278885,273.874054 130.551468,269.911896 131.373901,265.491760 
	C135.950058,265.077972 139.976349,265.122162 144.002655,265.166351 
	C144.002335,269.088684 144.002029,273.011047 144.002487,277.384155 
	C139.644455,277.879181 135.285645,277.923401 130.466583,277.901917 
z"/>
<path fill="#3788EB" opacity="1.000000" stroke="none" 
	d="
M189.385544,269.019684 
	C188.975510,265.193268 188.932587,261.327972 189.132233,256.784515 
	C193.585114,254.098175 197.795425,252.090027 202.005737,250.081894 
	C202.319763,254.119736 202.633774,258.157562 202.983078,262.612366 
	C198.596466,265.013184 194.174561,266.997009 189.385544,269.019684 
z"/>
<path fill="#2C75E6" opacity="1.000000" stroke="none" 
	d="
M162.430695,4.621626 
	C162.877121,8.484031 162.938797,12.254152 162.569153,16.526579 
	C157.761261,16.549002 153.384674,16.069122 149.008102,15.589241 
	C148.994690,11.974902 148.981277,8.360562 148.957245,4.279939 
	C150.154877,3.717181 151.363144,3.620706 152.974396,3.652713 
	C153.377380,3.781194 153.681763,3.698692 153.681763,3.698692 
	C156.469818,3.975576 159.257889,4.252460 162.430695,4.621626 
z"/>
<path fill="#2364D8" opacity="1.000000" stroke="none" 
	d="
M134.754700,3.692491 
	C134.360321,7.588185 133.685593,11.201142 132.605820,15.360700 
	C129.465897,16.123255 126.731010,16.339207 123.996124,16.555161 
	C123.996315,12.711399 123.996513,8.867638 123.990982,4.573539 
	C127.481621,3.885386 130.977966,3.647569 134.754700,3.692491 
z"/>
<path fill="#286EE4" opacity="1.000000" stroke="none" 
	d="
M153.573822,3.619828 
	C153.681763,3.698692 153.377380,3.781194 153.327759,3.756248 
	C153.278152,3.731302 153.465881,3.540964 153.573822,3.619828 
z"/>
<path fill="#000101" opacity="1.000000" stroke="none" 
	d="
M123.590340,16.691563 
	C126.731010,16.339207 129.465897,16.123255 132.609528,15.799002 
	C138.038925,15.696478 143.059616,15.702253 148.544189,15.648635 
	C153.384674,16.069122 157.761261,16.549002 162.570267,16.987993 
	C167.392258,17.985937 171.781815,19.024771 176.578278,20.057072 
	C181.751953,21.948109 186.518707,23.845676 191.646942,25.785172 
	C197.719406,28.953608 203.430420,32.080116 209.480835,35.333305 
	C215.318970,39.909912 220.817688,44.359848 226.635941,48.912247 
	C232.724945,55.588966 238.494400,62.163223 244.556274,68.892761 
	C249.741379,79.183998 254.634064,89.319954 259.758850,99.729668 
	C268.511475,126.382904 268.704681,152.813309 260.376984,179.648376 
	C256.562592,188.101242 252.847107,196.200928 249.075806,204.652618 
	C244.774673,210.787201 240.529327,216.569778 236.135498,222.652374 
	C230.834473,227.895660 225.681961,232.838928 220.272263,238.007782 
	C214.190247,242.038895 208.365387,245.844406 202.273132,249.865906 
	C197.795425,252.090027 193.585114,254.098175 189.094543,256.291412 
	C184.437805,257.976440 180.061371,259.476410 175.347656,261.146301 
	C170.168930,262.246826 165.327469,263.177368 160.129242,264.227722 
	C154.823700,264.575104 149.874908,264.802704 144.464386,265.098328 
	C139.976349,265.122162 135.950058,265.077972 131.464874,265.099365 
	C126.842209,264.635223 122.678444,264.105469 118.114639,263.566071 
	C112.196091,262.005646 106.677559,260.454895 100.790573,258.843079 
	C93.514992,255.561905 86.607864,252.341797 79.344177,249.094498 
	C73.675674,245.364471 68.363739,241.661652 62.730209,237.878815 
	C56.901176,232.513138 51.393738,227.227493 45.540382,221.929428 
	C43.091209,218.621674 40.958046,215.344955 38.892899,212.025909 
	C36.718246,208.530869 34.608601,204.995377 32.219128,201.243347 
	C28.245832,192.406433 24.523958,183.803741 20.467913,175.076370 
	C19.102234,167.409485 17.700495,159.895966 17.113798,152.319336 
	C15.756891,134.796127 16.842121,117.478989 23.001614,100.389297 
	C27.629795,90.562271 32.252487,81.124435 36.930668,71.341217 
	C40.713219,66.468300 44.440285,61.940788 48.321918,57.139244 
	C52.561913,52.814274 56.647339,48.763336 60.886520,44.420635 
	C65.585701,40.994743 70.131134,37.860611 74.867569,34.455360 
	C79.903976,31.679619 84.749374,29.174997 89.820305,26.415928 
	C95.185028,24.271742 100.324211,22.382008 105.739731,20.271797 
	C111.738892,18.976871 117.461723,17.902418 123.590340,16.691563 
M164.923065,106.952385 
	C166.719009,106.964622 168.516754,106.930183 170.310516,106.999130 
	C173.723007,107.130295 173.550171,105.441208 172.546371,103.164375 
	C169.549423,103.164375 166.784500,103.164375 163.120087,103.011406 
	C160.083038,103.061142 157.045975,103.110870 153.129486,103.020828 
	C150.757721,103.065796 148.385971,103.110764 145.198029,102.992897 
	C142.104172,100.436943 142.331177,93.765610 145.544159,91.977448 
	C148.634323,90.257652 147.539459,89.471291 145.030518,88.179817 
	C143.954391,87.625870 143.265488,85.300026 143.357269,83.839348 
	C143.423355,82.787247 145.071930,81.834549 146.882904,80.956497 
	C148.924850,80.913528 150.966812,80.870560 153.927002,80.958229 
	C165.518295,81.097809 165.518295,81.097809 165.331253,77.168839 
	C160.904846,77.168839 156.457642,77.168839 151.162537,77.028038 
	C149.446426,77.070602 147.730316,77.113167 145.189987,76.991730 
	C144.520920,75.758713 143.322098,74.546051 143.273804,73.289200 
	C143.056793,67.639702 143.244247,61.976208 143.138504,56.320518 
	C143.010422,49.468678 138.674911,43.637665 131.216446,40.840450 
	C127.492531,41.020790 123.768608,41.201130 119.380737,41.465805 
	C116.564323,44.249870 113.747910,47.033936 110.185066,49.883568 
	C107.089813,51.851105 103.994560,53.818642 100.290085,56.125519 
	C95.064507,62.039234 93.815117,68.904198 95.525162,75.535866 
	C92.943970,78.641953 90.855942,81.154587 88.198227,84.085602 
	C82.817574,91.272942 82.611328,98.978630 86.037315,107.716003 
	C88.297485,110.497040 90.557655,113.278076 93.120934,116.759331 
	C93.175705,117.499458 93.230484,118.239594 92.874435,119.650002 
	C90.617523,125.249130 90.329216,130.761658 93.816994,136.793152 
	C96.502853,140.953827 99.904259,144.126663 105.655647,145.325134 
	C109.690178,145.689560 112.907913,147.404312 115.401283,150.696457 
	C116.219803,151.777191 117.748886,152.319748 119.458939,153.694046 
	C123.656593,153.886795 127.854256,154.079544 132.758743,154.127731 
	C140.534195,150.051010 143.752899,143.683380 143.287811,134.896591 
	C142.989029,129.251602 143.735153,123.551292 144.930862,117.959137 
	C148.665054,117.959137 152.399246,117.959137 156.133438,117.959137 
	C156.350891,117.416687 156.568344,116.874229 156.785782,116.331779 
	C155.644745,115.700829 154.530975,114.598221 153.357376,114.530357 
	C150.259430,114.351204 147.135529,114.620872 143.565628,113.986771 
	C143.851685,111.422035 140.850006,107.731079 146.907196,106.956673 
	C149.607361,106.916641 152.307541,106.876610 155.901062,106.965660 
	C158.607346,106.920113 161.313644,106.874565 164.923065,106.952385 
M172.892944,91.968239 
	C175.598846,91.925690 178.304733,91.883148 181.867432,91.972504 
	C184.716446,92.767838 187.885361,93.030495 190.330292,94.498718 
	C193.134705,96.182831 195.820282,96.503784 197.271606,93.979111 
	C198.427963,91.967545 198.774216,88.331482 197.662186,86.553665 
	C196.823227,85.212440 191.486572,84.647652 190.950241,85.499397 
	C188.343170,89.639664 184.320236,87.795418 180.176926,88.501648 
	C177.445435,88.603203 174.713928,88.704765 171.096710,88.547615 
	C167.131516,88.595795 163.166306,88.643974 158.364624,88.376671 
	C155.713150,88.889481 151.667145,86.406845 150.222198,91.882019 
	C153.838425,91.882019 156.445190,91.882019 159.970108,91.946663 
	C163.980606,91.906876 167.991089,91.867081 172.892944,91.968239 
M183.810974,106.977936 
	C185.997177,107.757904 188.140228,108.981773 190.381058,109.199532 
	C192.885117,109.442863 196.263504,109.625740 197.780075,108.227859 
	C198.964172,107.136429 198.811127,102.708878 197.549561,101.378860 
	C196.283447,100.044052 192.847000,100.274765 190.475815,100.614845 
	C187.915298,100.982071 185.486938,102.270798 182.130508,103.020218 
	C180.535065,103.020218 178.939621,103.020218 177.372711,103.020218 
	C177.114441,107.125511 177.114441,107.125511 183.810974,106.977936 
M119.641632,197.321426 
	C124.994270,198.473083 129.057953,196.158737 130.648621,191.052704 
	C132.464722,185.223083 130.584717,178.764160 126.306580,177.006500 
	C123.215569,175.736557 120.151573,175.755493 117.212540,178.937729 
	C116.075722,178.152039 114.938896,177.366333 113.377411,176.287140 
	C113.377411,186.394608 113.377411,195.516983 113.377411,204.639359 
	C113.962112,204.777771 114.546822,204.916183 115.131523,205.054581 
	C115.580765,203.301880 116.078705,201.559814 116.464157,199.793198 
	C116.784302,198.325882 115.656258,195.681442 119.641632,197.321426 
M193.501480,197.747086 
	C199.796219,197.436829 203.987381,192.667114 203.780640,186.049026 
	C203.527725,177.953064 197.580200,174.200089 190.550949,178.348480 
	C188.841034,177.809555 187.131134,177.270615 184.937256,176.579147 
	C184.937256,181.904755 184.937256,186.390137 184.937256,190.875504 
	C184.937256,195.477737 184.937256,200.079987 184.937256,205.065750 
	C191.815796,204.098877 187.386856,198.952652 189.469162,196.409882 
	C190.441040,196.672760 191.675552,197.006699 193.501480,197.747086 
M140.911255,180.121704 
	C140.901443,177.469696 141.133133,174.783630 140.766266,172.181976 
	C140.613617,171.099274 139.184799,170.196548 138.336288,169.211975 
	C137.962662,169.521637 137.589050,169.831299 137.215424,170.140961 
	C137.215424,179.025391 137.215424,187.909805 137.215424,196.794220 
	C137.636948,197.061676 138.058472,197.329147 138.479996,197.596603 
	C139.278839,196.568863 140.659485,195.599106 140.768723,194.502670 
	C141.112366,191.053284 140.978333,187.556305 141.954849,184.026474 
	C145.886841,184.026474 149.818832,184.026474 154.046509,184.026474 
	C154.046509,187.985611 153.900452,191.304794 154.142059,194.595490 
	C154.208221,195.496796 155.436508,196.312775 156.131500,197.167908 
	C156.723328,196.364594 157.814468,195.570267 157.829132,194.756531 
	C157.964233,187.264923 157.981323,179.768555 157.825272,172.277878 
	C157.806808,171.390732 156.543655,170.529526 155.857483,169.656296 
	C155.251846,170.601913 154.210571,171.509430 154.123947,172.500412 
	C153.883575,175.249924 154.040588,178.034180 154.040588,181.037338 
	C149.263657,181.037338 145.128998,181.037338 140.911255,180.121704 
M47.325378,169.618073 
	C45.413174,169.618073 43.500969,169.618073 41.449654,169.618073 
	C41.449654,179.098938 41.449654,187.919128 41.449654,197.031128 
	C43.818966,197.031128 45.914829,197.031128 48.881882,197.170502 
	C57.493488,197.048340 62.881741,193.457016 64.132164,187.006012 
	C66.400307,175.304474 60.847900,169.388931 47.325378,169.618073 
M170.094009,115.032707 
	C166.822144,115.853493 162.716583,113.238464 159.450699,117.240868 
	C160.695557,117.636200 161.153717,117.906609 161.612213,117.907181 
	C164.742386,117.911057 167.872635,117.858215 171.892365,117.965271 
	C185.317505,117.364403 184.181030,120.466461 184.010208,129.079681 
	C183.979752,130.615097 181.903183,132.077179 181.781616,133.651138 
	C181.596924,136.042160 181.507248,139.229263 182.867355,140.703171 
	C183.970459,141.898605 188.121628,142.017990 189.366623,140.893585 
	C190.827744,139.574020 191.832123,135.196976 190.894669,134.238098 
	C187.718002,130.988785 188.366745,127.334343 188.183487,123.634346 
	C187.913239,118.177895 184.063339,114.778252 178.471649,114.953407 
	C175.982147,115.031387 173.492355,115.099686 170.094009,115.032707 
M187.410019,75.342506 
	C189.180206,70.185249 186.797134,64.028374 191.455826,59.385468 
	C192.062531,58.780823 190.480453,54.934086 188.997421,53.626781 
	C187.913635,52.671406 185.061722,52.823643 183.468613,53.535477 
	C180.371841,54.919170 180.818741,58.815708 182.333420,62.715721 
	C183.657913,66.125992 184.172302,70.487770 183.183151,73.887657 
	C182.697830,75.555832 178.040497,76.194519 175.174713,76.915314 
	C173.510651,77.333862 171.655197,76.991432 169.885864,76.991432 
	C169.632156,77.441071 169.378464,77.890701 169.124756,78.340340 
	C170.001175,79.220680 170.820465,80.790199 171.763351,80.868347 
	C177.436188,81.338455 183.212677,81.697968 187.410019,75.342506 
M97.754425,176.281601 
	C91.730759,178.101212 88.731277,183.425430 90.150970,189.778122 
	C91.431328,195.507324 95.990204,198.605927 102.051987,197.563690 
	C103.563934,197.303741 104.921059,196.143341 106.349342,195.396805 
	C106.118454,194.955063 105.887573,194.513336 105.656685,194.071594 
	C98.024475,195.602097 95.132416,194.176010 94.159332,187.778748 
	C98.259499,187.778748 102.273994,187.778748 106.239685,187.778748 
	C106.513031,179.658691 105.007034,177.539062 97.754425,176.281601 
M69.740204,192.549072 
	C72.481140,197.180344 76.608627,198.591125 81.649521,197.402237 
	C82.923027,197.101868 84.012413,196.020874 85.186409,195.298599 
	C75.757439,195.312057 73.371284,193.997803 73.547226,187.717529 
	C77.263809,187.717529 81.004120,187.717529 84.696678,187.717529 
	C85.065636,181.014587 83.153137,177.344406 79.114433,176.430099 
	C75.107384,175.522964 70.530647,177.764740 69.335075,182.213745 
	C68.524948,185.228424 69.274391,188.662201 69.740204,192.549072 
M218.530609,197.781265 
	C223.719833,196.938034 223.719833,196.938034 223.322113,193.872971 
	C216.024567,196.014099 213.009308,194.469498 212.287384,187.865814 
	C216.098953,187.865814 219.873184,187.865814 223.589584,187.865814 
	C224.438171,181.479553 222.737976,177.754822 218.676926,176.618439 
	C214.431396,175.430435 209.848389,177.708847 208.375137,182.232742 
	C205.771225,190.228485 209.641953,197.611008 218.530609,197.781265 
M180.112793,176.863007 
	C178.875687,177.795944 177.108551,178.469666 176.501556,179.710785 
	C174.729752,183.333694 173.421158,187.183136 171.624664,191.716873 
	C170.100403,188.074051 168.895996,185.351486 167.815445,182.580627 
	C165.623230,176.959015 165.650848,176.948242 162.475754,177.461609 
	C163.554321,186.590317 172.446686,194.287659 166.454941,204.632996 
	C170.546722,204.246887 178.259354,188.459305 180.112793,176.863007 
M236.550293,177.883255 
	C235.716888,177.962112 234.840927,178.235687 234.061951,178.065445 
	C233.272736,177.892990 232.579407,177.281769 231.844086,176.862732 
	C231.463211,177.659790 230.768036,178.450821 230.752594,179.254883 
	C230.653717,184.408524 230.599594,189.569107 230.799866,194.716934 
	C230.836655,195.662735 232.104599,196.560638 233.297211,198.128860 
	C235.680191,190.511612 229.549072,180.644333 241.827682,179.424103 
	C241.545624,174.459900 239.011536,176.759186 236.550293,177.883255 
z"/>
<path fill="#2772B9" opacity="1.000000" stroke="none" 
	d="
M146.014633,106.837524 
	C140.850006,107.731079 143.851685,111.422035 143.795166,114.665375 
	C144.020767,116.187904 144.016846,117.031845 144.012909,117.875778 
	C143.735153,123.551292 142.989029,129.251602 143.287811,134.896591 
	C143.752899,143.683380 140.534195,150.051010 132.389709,153.753815 
	C131.977463,152.488678 131.934219,151.597458 132.128113,150.478928 
	C137.963791,147.193756 139.858673,142.224533 139.849518,136.141235 
	C139.811432,110.824501 139.665756,85.505844 139.942413,60.192078 
	C140.019272,53.158710 137.694473,47.972996 131.952454,43.790276 
	C131.982117,42.638554 131.997849,41.870644 132.013580,41.102734 
	C138.674911,43.637665 143.010422,49.468678 143.138504,56.320518 
	C143.244247,61.976208 143.056793,67.639702 143.273804,73.289200 
	C143.322098,74.546051 144.520920,75.758713 145.597107,77.441879 
	C146.007690,78.873863 146.011169,79.855682 146.014633,80.837509 
	C145.071930,81.834549 143.423355,82.787247 143.357269,83.839348 
	C143.265488,85.300026 143.954391,87.625870 145.030518,88.179817 
	C147.539459,89.471291 148.634323,90.257652 145.544159,91.977448 
	C142.331177,93.765610 142.104172,100.436943 145.601166,103.442474 
	C146.007736,104.873871 146.011185,105.855698 146.014633,106.837524 
z"/>
<path fill="#4298DC" opacity="1.000000" stroke="none" 
	d="
M187.195557,75.685287 
	C183.212677,81.697968 177.436188,81.338455 171.763351,80.868347 
	C170.820465,80.790199 170.001175,79.220680 169.124756,78.340340 
	C169.378464,77.890701 169.632156,77.441071 169.885864,76.991432 
	C171.655197,76.991432 173.510651,77.333862 175.174713,76.915314 
	C178.040497,76.194519 182.697830,75.555832 183.183151,73.887657 
	C184.172302,70.487770 183.657913,66.125992 182.333420,62.715721 
	C180.818741,58.815708 180.371841,54.919170 183.468613,53.535477 
	C185.061722,52.823643 187.913635,52.671406 188.997421,53.626781 
	C190.480453,54.934086 192.062531,58.780823 191.455826,59.385468 
	C186.797134,64.028374 189.180206,70.185249 187.195557,75.685287 
z"/>
<path fill="#1950CE" opacity="1.000000" stroke="none" 
	d="
M98.136948,176.244232 
	C105.007034,177.539062 106.513031,179.658691 106.239685,187.778748 
	C102.273994,187.778748 98.259499,187.778748 94.159332,187.778748 
	C95.132416,194.176010 98.024475,195.602097 105.656685,194.071594 
	C105.887573,194.513336 106.118454,194.955063 106.349342,195.396805 
	C104.921059,196.143341 103.563934,197.303741 102.051987,197.563690 
	C95.990204,198.605927 91.431328,195.507324 90.150970,189.778122 
	C88.731277,183.425430 91.730759,178.101212 98.136948,176.244232 
M96.108116,180.190903 
	C95.310532,181.407089 94.512947,182.623276 93.328651,184.429153 
	C96.854614,184.429153 99.356277,184.429153 102.163376,184.429153 
	C102.080215,180.439423 100.480896,178.987305 96.108116,180.190903 
z"/>
<path fill="#4298DC" opacity="1.000000" stroke="none" 
	d="
M171.002686,115.172379 
	C173.492355,115.099686 175.982147,115.031387 178.471649,114.953407 
	C184.063339,114.778252 187.913239,118.177895 188.183487,123.634346 
	C188.366745,127.334343 187.718002,130.988785 190.894669,134.238098 
	C191.832123,135.196976 190.827744,139.574020 189.366623,140.893585 
	C188.121628,142.017990 183.970459,141.898605 182.867355,140.703171 
	C181.507248,139.229263 181.596924,136.042160 181.781616,133.651138 
	C181.903183,132.077179 183.979752,130.615097 184.010208,129.079681 
	C184.181030,120.466461 185.317505,117.364403 171.447342,117.563065 
	C171.002441,116.498024 171.002563,115.835205 171.002686,115.172379 
z"/>
<path fill="#1143CB" opacity="1.000000" stroke="none" 
	d="
M69.533264,192.228806 
	C69.274391,188.662201 68.524948,185.228424 69.335075,182.213745 
	C70.530647,177.764740 75.107384,175.522964 79.114433,176.430099 
	C83.153137,177.344406 85.065636,181.014587 84.696678,187.717529 
	C81.004120,187.717529 77.263809,187.717529 73.547226,187.717529 
	C73.371284,193.997803 75.757439,195.312057 85.186409,195.298599 
	C84.012413,196.020874 82.923027,197.101868 81.649521,197.402237 
	C76.608627,198.591125 72.481140,197.180344 69.533264,192.228806 
M78.278214,184.797791 
	C79.197769,184.014511 80.117317,183.231247 81.036873,182.447968 
	C79.697830,181.469223 78.164635,179.517365 77.064651,179.736832 
	C75.359436,180.077057 73.949623,181.897858 72.414566,183.090912 
	C72.673813,183.549683 72.933067,184.008453 73.192314,184.467224 
	C74.606735,184.580109 76.021156,184.692993 78.278214,184.797791 
z"/>
<path fill="#469DE8" opacity="1.000000" stroke="none" 
	d="
M218.120026,197.801727 
	C209.641953,197.611008 205.771225,190.228485 208.375137,182.232742 
	C209.848389,177.708847 214.431396,175.430435 218.676926,176.618439 
	C222.737976,177.754822 224.438171,181.479553 223.589584,187.865814 
	C219.873184,187.865814 216.098953,187.865814 212.287384,187.865814 
	C213.009308,194.469498 216.024567,196.014099 223.322113,193.872971 
	C223.719833,196.938034 223.719833,196.938034 218.120026,197.801727 
M218.985123,180.525040 
	C214.010544,178.820892 212.846909,179.523529 212.425339,184.496338 
	C215.004089,184.496338 217.582855,184.496338 220.647491,184.496338 
	C220.189301,183.057938 219.860672,182.026291 218.985123,180.525040 
z"/>
<path fill="#3581E0" opacity="1.000000" stroke="none" 
	d="
M180.415421,177.043121 
	C178.259354,188.459305 170.546722,204.246887 166.454941,204.632996 
	C172.446686,194.287659 163.554321,186.590317 162.475754,177.461609 
	C165.650848,176.948242 165.623230,176.959015 167.815445,182.580627 
	C168.895996,185.351486 170.100403,188.074051 171.624664,191.716873 
	C173.421158,187.183136 174.729752,183.333694 176.501556,179.710785 
	C177.108551,178.469666 178.875687,177.795944 180.415421,177.043121 
z"/>
<path fill="#0B3AD1" opacity="1.000000" stroke="none" 
	d="
M48.032955,169.853897 
	C60.847900,169.388931 66.400307,175.304474 64.132164,187.006012 
	C62.881741,193.457016 57.493488,197.048340 48.438660,196.745026 
	C48.003796,195.607941 48.012150,194.896317 48.437897,194.125763 
	C57.571522,193.632294 60.411674,190.605331 60.034996,182.151825 
	C59.725090,175.196869 57.475304,173.386292 48.017700,172.151031 
	C48.023937,171.166504 48.028446,170.510208 48.032955,169.853897 
z"/>
<path fill="#2F77DF" opacity="1.000000" stroke="none" 
	d="
M140.994339,181.037338 
	C145.128998,181.037338 149.263657,181.037338 154.040588,181.037338 
	C154.040588,178.034180 153.883575,175.249924 154.123947,172.500412 
	C154.210571,171.509430 155.251846,170.601913 155.857483,169.656296 
	C156.543655,170.529526 157.806808,171.390732 157.825272,172.277878 
	C157.981323,179.768555 157.964233,187.264923 157.829132,194.756531 
	C157.814468,195.570267 156.723328,196.364594 156.131500,197.167908 
	C155.436508,196.312775 154.208221,195.496796 154.142059,194.595490 
	C153.900452,191.304794 154.046509,187.985611 154.046509,184.026474 
	C149.818832,184.026474 145.886841,184.026474 141.479340,183.672241 
	C141.000671,182.557770 140.997498,181.797562 140.994339,181.037338 
z"/>
<path fill="#052EC3" opacity="1.000000" stroke="none" 
	d="
M47.679169,169.735992 
	C48.028446,170.510208 48.023937,171.166504 47.581764,172.242691 
	C46.454556,173.367462 45.188271,174.055328 45.166859,174.779968 
	C44.997993,180.494446 44.953148,186.220734 45.193909,191.929749 
	C45.227226,192.719727 47.034481,193.434891 48.020500,194.184692 
	C48.012150,194.896317 48.003796,195.607941 48.003067,196.675354 
	C45.914829,197.031128 43.818966,197.031128 41.449654,197.031128 
	C41.449654,187.919128 41.449654,179.098938 41.449654,169.618073 
	C43.500969,169.618073 45.413174,169.618073 47.679169,169.735992 
z"/>
<path fill="#3D8FE9" opacity="1.000000" stroke="none" 
	d="
M192.910065,197.340622 
	C191.675552,197.006699 190.441040,196.672760 189.469162,196.409882 
	C187.386856,198.952652 191.815796,204.098877 184.937256,205.065750 
	C184.937256,200.079987 184.937256,195.477737 184.937256,190.875504 
	C184.937256,186.390137 184.937256,181.904755 184.937256,176.579147 
	C187.131134,177.270615 188.841034,177.809555 191.014938,178.428787 
	C191.676437,179.071335 191.873947,179.633591 191.830276,180.472931 
	C187.184921,184.770004 187.827789,191.335571 192.987000,195.480972 
	C192.955994,196.348969 192.933029,196.844803 192.910065,197.340622 
z"/>
<path fill="#47A0E5" opacity="1.000000" stroke="none" 
	d="
M181.051941,88.776634 
	C184.320236,87.795418 188.343170,89.639664 190.950241,85.499397 
	C191.486572,84.647652 196.823227,85.212440 197.662186,86.553665 
	C198.774216,88.331482 198.427963,91.967545 197.271606,93.979111 
	C195.820282,96.503784 193.134705,96.182831 190.330292,94.498718 
	C187.885361,93.030495 184.716446,92.767838 181.435410,91.599693 
	C181.019577,90.410133 181.035751,89.593384 181.051941,88.776634 
z"/>
<path fill="#3E8FDF" opacity="1.000000" stroke="none" 
	d="
M192.071472,180.195847 
	C191.873947,179.633591 191.676437,179.071335 191.287842,178.277206 
	C197.580200,174.200089 203.527725,177.953064 203.780640,186.049026 
	C203.987381,192.667114 199.796219,197.436829 193.205780,197.543854 
	C192.933029,196.844803 192.955994,196.348969 193.374420,195.439880 
	C198.617661,193.622406 200.157562,190.314285 199.119171,184.167526 
	C198.377441,179.776871 195.453690,179.680878 192.071472,180.195847 
z"/>
<path fill="#2568DF" opacity="1.000000" stroke="none" 
	d="
M117.991913,178.979691 
	C120.151573,175.755493 123.215569,175.736557 126.306580,177.006500 
	C130.584717,178.764160 132.464722,185.223083 130.648621,191.052704 
	C129.057953,196.158737 124.994270,198.473083 119.326035,196.774841 
	C119.020546,195.777863 119.030655,195.327469 119.442719,194.924225 
	C125.394249,194.755478 127.387634,192.193192 126.986824,185.790939 
	C126.673592,180.787811 125.261749,179.746979 119.176575,180.047058 
	C118.605591,179.570740 118.298752,179.275223 117.991913,178.979691 
z"/>
<path fill="#094286" opacity="1.000000" stroke="none" 
	d="
M88.767914,83.667221 
	C90.855942,81.154587 92.943970,78.641953 95.525162,75.535866 
	C93.815117,68.904198 95.064507,62.039234 100.697037,56.271122 
	C101.751709,56.950359 102.399422,57.483997 102.875702,58.325851 
	C98.848701,63.558025 98.267883,69.010567 99.477066,75.031761 
	C99.786942,76.574760 98.585030,78.825287 97.413345,80.173370 
	C95.315147,82.587448 92.712608,84.563179 90.141525,86.334183 
	C89.564087,85.186562 89.166000,84.426895 88.767914,83.667221 
z"/>
<path fill="#47A0E5" opacity="1.000000" stroke="none" 
	d="
M183.000931,103.157562 
	C185.486938,102.270798 187.915298,100.982071 190.475815,100.614845 
	C192.847000,100.274765 196.283447,100.044052 197.549561,101.378860 
	C198.811127,102.708878 198.964172,107.136429 197.780075,108.227859 
	C196.263504,109.625740 192.885117,109.442863 190.381058,109.199532 
	C188.140228,108.981773 185.997177,107.757904 183.405823,106.538567 
	C183.000763,105.118652 183.000854,104.138107 183.000931,103.157562 
z"/>
<path fill="#286AD5" opacity="1.000000" stroke="none" 
	d="
M140.952789,180.579529 
	C140.997498,181.797562 141.000671,182.557770 141.016541,183.697876 
	C140.978333,187.556305 141.112366,191.053284 140.768723,194.502670 
	C140.659485,195.599106 139.278839,196.568863 138.479996,197.596603 
	C138.058472,197.329147 137.636948,197.061676 137.215424,196.794220 
	C137.215424,187.909805 137.215424,179.025391 137.215424,170.140961 
	C137.589050,169.831299 137.962662,169.521637 138.336288,169.211975 
	C139.184799,170.196548 140.613617,171.099274 140.766266,172.181976 
	C141.133133,174.783630 140.901443,177.469696 140.952789,180.579529 
z"/>
<path fill="#2161DF" opacity="1.000000" stroke="none" 
	d="
M119.040764,194.877090 
	C119.030655,195.327469 119.020546,195.777863 119.006935,196.566101 
	C115.656258,195.681442 116.784302,198.325882 116.464157,199.793198 
	C116.078705,201.559814 115.580765,203.301880 115.131523,205.054581 
	C114.546822,204.916183 113.962112,204.777771 113.377411,204.639359 
	C113.377411,195.516983 113.377411,186.394608 113.377411,176.287140 
	C114.938896,177.366333 116.075722,178.152039 117.602226,178.958710 
	C118.298752,179.275223 118.605591,179.570740 118.940643,180.329346 
	C115.274200,184.504532 115.303177,190.180374 119.040764,194.877090 
z"/>
<path fill="#50B0F4" opacity="1.000000" stroke="none" 
	d="
M236.803772,177.635620 
	C239.011536,176.759186 241.545624,174.459900 241.827682,179.424103 
	C229.549072,180.644333 235.680191,190.511612 233.297211,198.128860 
	C232.104599,196.560638 230.836655,195.662735 230.799866,194.716934 
	C230.599594,189.569107 230.653717,184.408524 230.752594,179.254883 
	C230.768036,178.450821 231.463211,177.659790 231.844086,176.862732 
	C232.579407,177.281769 233.272736,177.892990 234.061951,178.065445 
	C234.840927,178.235687 235.716888,177.962112 236.803772,177.635620 
z"/>
<path fill="#02377A" opacity="1.000000" stroke="none" 
	d="
M88.483070,83.876411 
	C89.166000,84.426895 89.564087,85.186562 90.078110,86.672363 
	C87.248070,93.383713 87.261215,99.551048 88.802475,106.061417 
	C87.663170,106.541153 86.781242,106.787750 85.899315,107.034348 
	C82.611328,98.978630 82.817574,91.272942 88.483070,83.876411 
z"/>
<path fill="#17579A" opacity="1.000000" stroke="none" 
	d="
M110.931503,49.818001 
	C113.747910,47.033936 116.564323,44.249870 119.736160,41.722084 
	C120.429825,42.670124 120.768074,43.361885 120.925491,44.354156 
	C114.131226,48.204597 113.158615,53.965641 114.293556,60.679836 
	C114.467773,61.710476 113.723015,62.896454 113.403275,64.010590 
	C112.453392,63.168266 110.930023,62.472939 110.668861,61.454075 
	C110.059990,59.078766 110.058334,56.547806 110.053207,53.791161 
	C110.507652,52.274284 110.719574,51.046143 110.931503,49.818001 
z"/>
<path fill="#0E498A" opacity="1.000000" stroke="none" 
	d="
M93.285263,118.979721 
	C93.230484,118.239594 93.175705,117.499458 93.286346,116.311691 
	C93.976974,115.208870 94.502182,114.553703 95.393768,113.938400 
	C100.337608,112.481819 103.777016,107.380188 111.005478,109.973869 
	C108.965225,111.383995 107.851143,112.500298 106.506592,113.017632 
	C102.648903,114.501923 98.631111,115.650101 96.545197,119.920975 
	C95.255341,119.570534 94.270294,119.275131 93.285263,118.979721 
z"/>
<path fill="#125297" opacity="1.000000" stroke="none" 
	d="
M118.953026,153.108398 
	C117.748886,152.319748 116.219803,151.777191 115.401283,150.696457 
	C112.907913,147.404312 109.690178,145.689560 105.339760,144.711304 
	C105.036903,143.278503 105.049927,142.459534 105.501953,141.708313 
	C110.896217,141.575500 115.352722,142.211838 117.441772,147.722687 
	C117.804672,148.680008 119.119804,149.276337 119.855507,150.333832 
	C119.461609,151.454971 119.207314,152.281693 118.953026,153.108398 
z"/>
<path fill="#063E81" opacity="1.000000" stroke="none" 
	d="
M93.079849,119.314865 
	C94.270294,119.275131 95.255341,119.570534 96.496559,120.298523 
	C93.975899,125.524963 94.669167,130.253784 96.728760,135.174927 
	C95.491821,135.638062 94.545349,135.877869 93.598869,136.117676 
	C90.329216,130.761658 90.617523,125.249130 93.079849,119.314865 
z"/>
<path fill="#3485CC" opacity="1.000000" stroke="none" 
	d="
M152.010452,77.168839 
	C156.457642,77.168839 160.904846,77.168839 165.331253,77.168839 
	C165.518295,81.097809 165.518295,81.097809 153.405914,80.582321 
	C152.593369,79.193893 152.301910,78.181366 152.010452,77.168839 
z"/>
<path fill="#3E8FDF" opacity="1.000000" stroke="none" 
	d="
M159.201111,88.692154 
	C163.166306,88.643974 167.131516,88.595795 171.545395,88.978508 
	C171.996582,90.215363 171.999084,91.021332 172.001587,91.827293 
	C167.991089,91.867081 163.980606,91.906876 159.456421,91.596161 
	C159.028854,90.394485 159.114990,89.543320 159.201111,88.692154 
z"/>
<path fill="#1E65AD" opacity="1.000000" stroke="none" 
	d="
M119.205978,153.401215 
	C119.207314,152.281693 119.461609,151.454971 120.264709,150.392563 
	C124.506020,150.339981 128.198502,150.523102 131.890991,150.706223 
	C131.934219,151.597458 131.977463,152.488678 132.036301,153.826111 
	C127.854256,154.079544 123.656593,153.886795 119.205978,153.401215 
z"/>
<path fill="#2E7DC6" opacity="1.000000" stroke="none" 
	d="
M144.471893,117.917458 
	C144.016846,117.031845 144.020767,116.187904 144.023315,115.027908 
	C147.135529,114.620872 150.259430,114.351204 153.357376,114.530357 
	C154.530975,114.598221 155.644745,115.700829 156.785782,116.331779 
	C156.568344,116.874229 156.350891,117.416687 156.133438,117.959137 
	C152.399246,117.959137 148.665054,117.959137 144.471893,117.917458 
z"/>
<path fill="#0E498A" opacity="1.000000" stroke="none" 
	d="
M93.707932,136.455414 
	C94.545349,135.877869 95.491821,135.638062 96.975403,135.409210 
	C100.029312,137.493622 102.546127,139.567093 105.062950,141.640549 
	C105.049927,142.459534 105.036903,143.278503 105.027809,144.507019 
	C99.904259,144.126663 96.502853,140.953827 93.707932,136.455414 
z"/>
<path fill="#125297" opacity="1.000000" stroke="none" 
	d="
M110.558289,49.850784 
	C110.719574,51.046143 110.507652,52.274284 109.724197,53.850487 
	C107.117485,55.471577 105.082314,56.744602 103.047134,58.017632 
	C102.399422,57.483997 101.751709,56.950359 101.001648,56.101456 
	C103.994560,53.818642 107.089813,51.851105 110.558289,49.850784 
z"/>
<path fill="#1E65AD" opacity="1.000000" stroke="none" 
	d="
M121.106323,44.053646 
	C120.768074,43.361885 120.429825,42.670124 120.068130,41.679916 
	C123.768608,41.201130 127.492531,41.020790 131.615021,40.971592 
	C131.997849,41.870644 131.982117,42.638554 131.500519,43.766525 
	C127.725227,44.102268 124.415779,44.077957 121.106323,44.053646 
z"/>
<path fill="#063E81" opacity="1.000000" stroke="none" 
	d="
M95.027390,113.898529 
	C94.502182,114.553703 93.976974,115.208870 93.134796,115.961578 
	C90.557655,113.278076 88.297485,110.497040 85.968315,107.375175 
	C86.781242,106.787750 87.663170,106.541153 89.037521,106.314186 
	C91.362419,108.855385 93.194908,111.376961 95.027390,113.898529 
z"/>
<path fill="#3485CC" opacity="1.000000" stroke="none" 
	d="
M154.008926,103.160599 
	C157.045975,103.110870 160.083038,103.061142 163.565536,103.454338 
	C164.013962,104.874519 164.016953,105.851768 164.019928,106.829018 
	C161.313644,106.874565 158.607346,106.920113 155.389862,106.589752 
	C154.588745,105.196091 154.298843,104.178352 154.008926,103.160599 
z"/>
<path fill="#3E8FDF" opacity="1.000000" stroke="none" 
	d="
M164.471497,106.890701 
	C164.016953,105.851768 164.013962,104.874519 164.015289,103.530823 
	C166.784500,103.164375 169.549423,103.164375 172.546371,103.164375 
	C173.550171,105.441208 173.723007,107.130295 170.310516,106.999130 
	C168.516754,106.930183 166.719009,106.964622 164.471497,106.890701 
z"/>
<path fill="#4298DC" opacity="1.000000" stroke="none" 
	d="
M172.447266,91.897766 
	C171.999084,91.021332 171.996582,90.215363 171.988251,89.107864 
	C174.713928,88.704765 177.445435,88.603203 180.614426,88.639145 
	C181.035751,89.593384 181.019577,90.410133 181.007019,91.533737 
	C178.304733,91.883148 175.598846,91.925690 172.447266,91.897766 
z"/>
<path fill="#28679E" opacity="1.000000" stroke="none" 
	d="
M158.782867,88.534409 
	C159.114990,89.543320 159.028854,90.394485 158.997330,91.563835 
	C156.445190,91.882019 153.838425,91.882019 150.222198,91.882019 
	C151.667145,86.406845 155.713150,88.889481 158.782867,88.534409 
z"/>
<path fill="#2E7DC6" opacity="1.000000" stroke="none" 
	d="
M153.569214,103.090714 
	C154.298843,104.178352 154.588745,105.196091 154.943176,106.525208 
	C152.307541,106.876610 149.607361,106.916641 146.460907,106.897095 
	C146.011185,105.855698 146.007736,104.873871 146.009247,103.523888 
	C148.385971,103.110764 150.757721,103.065796 153.569214,103.090714 
z"/>
<path fill="#3E8FDF" opacity="1.000000" stroke="none" 
	d="
M170.548340,115.102539 
	C171.002563,115.835205 171.002441,116.498024 171.002594,117.492264 
	C167.872635,117.858215 164.742386,117.911057 161.612213,117.907181 
	C161.153717,117.906609 160.695557,117.636200 159.450699,117.240868 
	C162.716583,113.238464 166.822144,115.853493 170.548340,115.102539 
z"/>
<path fill="#2E7DC6" opacity="1.000000" stroke="none" 
	d="
M151.586487,77.098434 
	C152.301910,78.181366 152.593369,79.193893 152.946793,80.517006 
	C150.966812,80.870560 148.924850,80.913528 146.448761,80.897003 
	C146.011169,79.855682 146.007690,78.873863 146.009216,77.523888 
	C147.730316,77.113167 149.446426,77.070602 151.586487,77.098434 
z"/>
<path fill="#469DE8" opacity="1.000000" stroke="none" 
	d="
M182.565720,103.088890 
	C183.000854,104.138107 183.000763,105.118652 183.000854,106.466896 
	C177.114441,107.125511 177.114441,107.125511 177.372711,103.020218 
	C178.939621,103.020218 180.535065,103.020218 182.565720,103.088890 
z"/>
<path fill="#010204" opacity="1.000000" stroke="none" 
	d="
M95.393768,113.938400 
	C93.194908,111.376961 91.362419,108.855385 89.294891,106.081039 
	C87.261215,99.551048 87.248070,93.383713 90.257462,87.060310 
	C92.712608,84.563179 95.315147,82.587448 97.413345,80.173370 
	C98.585030,78.825287 99.786942,76.574760 99.477066,75.031761 
	C98.267883,69.010567 98.848701,63.558025 102.875702,58.325851 
	C105.082314,56.744602 107.117485,55.471577 109.481674,54.139225 
	C110.058334,56.547806 110.059990,59.078766 110.668861,61.454075 
	C110.930023,62.472939 112.453392,63.168266 113.403275,64.010590 
	C113.723015,62.896454 114.467773,61.710476 114.293556,60.679836 
	C113.158615,53.965641 114.131226,48.204597 120.925491,44.354156 
	C124.415779,44.077957 127.725227,44.102268 131.486603,44.150333 
	C137.694473,47.972996 140.019272,53.158710 139.942413,60.192078 
	C139.665756,85.505844 139.811432,110.824501 139.849518,136.141235 
	C139.858673,142.224533 137.963791,147.193756 132.128113,150.478928 
	C128.198502,150.523102 124.506020,150.339981 120.404327,150.098129 
	C119.119804,149.276337 117.804672,148.680008 117.441772,147.722687 
	C115.352722,142.211838 110.896217,141.575500 105.501953,141.708313 
	C102.546127,139.567093 100.029312,137.493622 97.265854,135.185867 
	C94.669167,130.253784 93.975899,125.524963 96.801376,120.353561 
	C98.631111,115.650101 102.648903,114.501923 106.506592,113.017632 
	C107.851143,112.500298 108.965225,111.383995 111.005478,109.973869 
	C103.777016,107.380188 100.337608,112.481819 95.393768,113.938400 
M111.363258,89.361992 
	C113.017456,89.227730 114.671654,89.093475 116.325851,88.959221 
	C116.051506,88.130737 116.026100,87.022789 115.461647,86.519966 
	C112.250420,83.659378 106.135689,85.193443 102.890335,89.558746 
	C100.086388,93.330315 100.789001,97.846741 105.277199,100.942749 
	C105.438797,99.243706 105.874283,97.889069 105.627899,96.672531 
	C104.765617,92.414841 106.262856,89.939781 111.363258,89.361992 
M123.660690,116.253853 
	C124.098335,115.243645 124.535973,114.233444 125.158096,112.797409 
	C118.068665,113.869652 115.128342,117.213898 115.650871,122.724861 
	C116.124420,127.719383 119.374542,130.602737 125.547127,130.448624 
	C124.353745,128.847839 123.755066,127.484764 122.713806,126.742821 
	C117.597672,123.097298 117.635071,120.251129 123.660690,116.253853 
M129.765854,80.177071 
	C133.197067,85.768188 124.379425,86.863167 125.104126,91.712242 
	C131.572983,90.536598 134.578766,86.899399 133.930466,81.502907 
	C133.333893,76.536919 130.374283,74.086662 123.729797,74.437759 
	C126.170822,76.607552 127.777687,78.035873 129.765854,80.177071 
M118.515564,55.943996 
	C119.431580,55.514885 120.435272,55.208519 121.244804,54.630322 
	C122.784966,53.530285 124.305946,51.212490 125.668182,51.330166 
	C127.771301,51.511837 129.789505,53.229122 131.734634,54.466568 
	C132.792007,55.139248 133.624115,56.165993 135.284103,57.707432 
	C135.113068,50.616455 131.732239,47.303379 126.350510,47.532459 
	C121.116684,47.755238 117.773514,51.001801 118.515564,55.943996 
M99.556839,131.682617 
	C101.652290,135.622452 104.401711,138.563980 111.128052,138.349976 
	C109.332901,136.284256 108.428276,135.141388 107.416611,134.102768 
	C105.853813,132.498322 104.222069,130.960800 102.610962,129.403793 
	C101.862213,128.680176 101.093231,127.977486 100.333435,127.265312 
	C99.981796,128.501434 99.630157,129.737549 99.556839,131.682617 
M131.469177,141.101395 
	C130.885498,143.863037 124.637268,142.852890 126.992882,147.660828 
	C132.697693,147.090286 135.023346,144.645370 135.261414,138.107819 
	C133.799240,139.109497 132.798523,139.795029 131.469177,141.101395 
z"/>
<path fill="#020818" opacity="1.000000" stroke="none" 
	d="
M96.505035,180.036453 
	C100.480896,178.987305 102.080215,180.439423 102.163376,184.429153 
	C99.356277,184.429153 96.854614,184.429153 93.328651,184.429153 
	C94.512947,182.623276 95.310532,181.407089 96.505035,180.036453 
z"/>
<path fill="#020818" opacity="1.000000" stroke="none" 
	d="
M77.856895,184.801834 
	C76.021156,184.692993 74.606735,184.580109 73.192314,184.467224 
	C72.933067,184.008453 72.673813,183.549683 72.414566,183.090912 
	C73.949623,181.897858 75.359436,180.077057 77.064651,179.736832 
	C78.164635,179.517365 79.697830,181.469223 81.036873,182.447968 
	C80.117317,183.231247 79.197769,184.014511 77.856895,184.801834 
z"/>
<path fill="#020818" opacity="1.000000" stroke="none" 
	d="
M219.258591,180.759842 
	C219.860672,182.026291 220.189301,183.057938 220.647491,184.496338 
	C217.582855,184.496338 215.004089,184.496338 212.419739,184.494568 
	C212.846909,179.523529 214.010544,178.820892 219.258591,180.759842 
z"/>
<path fill="#000101" opacity="1.000000" stroke="none" 
	d="
M48.437897,194.125763 
	C47.034481,193.434891 45.227226,192.719727 45.193909,191.929749 
	C44.953148,186.220734 44.997993,180.494446 45.166859,174.779968 
	C45.188271,174.055328 46.454556,173.367462 47.580040,172.570923 
	C57.475304,173.386292 59.725090,175.196869 60.034996,182.151825 
	C60.411674,190.605331 57.571522,193.632294 48.437897,194.125763 
z"/>
<path fill="#010204" opacity="1.000000" stroke="none" 
	d="
M191.830261,180.472931 
	C195.453690,179.680878 198.377441,179.776871 199.119171,184.167526 
	C200.157562,190.314285 198.617661,193.622406 193.382446,195.067703 
	C187.827789,191.335571 187.184921,184.770004 191.830261,180.472931 
z"/>
<path fill="#02050C" opacity="1.000000" stroke="none" 
	d="
M119.442719,194.924225 
	C115.303177,190.180374 115.274200,184.504532 119.204788,180.510132 
	C125.261749,179.746979 126.673592,180.787811 126.986824,185.790939 
	C127.387634,192.193192 125.394249,194.755478 119.442719,194.924225 
z"/>
<path fill="#0E498A" opacity="1.000000" stroke="none" 
	d="
M110.987137,89.327568 
	C106.262856,89.939781 104.765617,92.414841 105.627899,96.672531 
	C105.874283,97.889069 105.438797,99.243706 105.277199,100.942749 
	C100.789001,97.846741 100.086388,93.330315 102.890335,89.558746 
	C106.135689,85.193443 112.250420,83.659378 115.461647,86.519966 
	C116.026100,87.022789 116.051506,88.130737 116.325851,88.959221 
	C114.671654,89.093475 113.017456,89.227730 110.987137,89.327568 
z"/>
<path fill="#17579A" opacity="1.000000" stroke="none" 
	d="
M123.341812,116.421677 
	C117.635071,120.251129 117.597672,123.097298 122.713806,126.742821 
	C123.755066,127.484764 124.353745,128.847839 125.547127,130.448624 
	C119.374542,130.602737 116.124420,127.719383 115.650871,122.724861 
	C115.128342,117.213898 118.068665,113.869652 125.158096,112.797409 
	C124.535973,114.233444 124.098335,115.243645 123.341812,116.421677 
z"/>
<path fill="#1D61A4" opacity="1.000000" stroke="none" 
	d="
M129.575195,79.820633 
	C127.777687,78.035873 126.170822,76.607552 123.729797,74.437759 
	C130.374283,74.086662 133.333893,76.536919 133.930466,81.502907 
	C134.578766,86.899399 131.572983,90.536598 125.104126,91.712242 
	C124.379425,86.863167 133.197067,85.768188 129.575195,79.820633 
z"/>
<path fill="#1D61A4" opacity="1.000000" stroke="none" 
	d="
M118.164520,55.883400 
	C117.773514,51.001801 121.116684,47.755238 126.350510,47.532459 
	C131.732239,47.303379 135.113068,50.616455 135.284103,57.707432 
	C133.624115,56.165993 132.792007,55.139248 131.734634,54.466568 
	C129.789505,53.229122 127.771301,51.511837 125.668182,51.330166 
	C124.305946,51.212490 122.784966,53.530285 121.244804,54.630322 
	C120.435272,55.208519 119.431580,55.514885 118.164520,55.883400 
z"/>
<path fill="#094286" opacity="1.000000" stroke="none" 
	d="
M99.417679,131.328140 
	C99.630157,129.737549 99.981796,128.501434 100.333435,127.265312 
	C101.093231,127.977486 101.862213,128.680176 102.610962,129.403793 
	C104.222069,130.960800 105.853813,132.498322 107.416611,134.102768 
	C108.428276,135.141388 109.332901,136.284256 111.128052,138.349976 
	C104.401711,138.563980 101.652290,135.622452 99.417679,131.328140 
z"/>
<path fill="#17579A" opacity="1.000000" stroke="none" 
	d="
M131.633499,140.790985 
	C132.798523,139.795029 133.799240,139.109497 135.261414,138.107819 
	C135.023346,144.645370 132.697693,147.090286 126.992882,147.660828 
	C124.637268,142.852890 130.885498,143.863037 131.633499,140.790985 
z"/>
</svg>