<svg version="1.1" id="Layer_1" xmlns="http://www.w3.org/2000/svg" xmlns:xlink="http://www.w3.org/1999/xlink" x="0px" y="0px"
	 width="100%" viewBox="0 0 217 128" enable-background="new 0 0 217 128" xml:space="preserve">
<path fill="#FCFDFC" opacity="1.000000" stroke="none" 
	d="
M175.000000,129.000000 
	C117.058098,129.000000 59.116199,129.000000 1.087149,129.000000 
	C1.087149,86.434334 1.087149,43.868423 1.087149,1.000000 
	C45.687107,1.000000 90.374893,1.000000 135.531311,1.421744 
	C135.998306,2.968175 135.996674,4.092861 135.562683,5.254735 
	C129.078262,5.171015 123.026215,5.050108 116.645905,4.865684 
	C115.879158,4.867709 115.440681,4.933250 114.748749,4.928720 
	C114.330933,4.919609 114.166565,4.980568 113.735428,4.997945 
	C113.306236,5.032480 113.143837,5.110597 112.645599,5.160027 
	C111.434425,5.160935 110.559097,5.190532 109.285934,5.158989 
	C107.925034,5.674658 106.961945,6.251467 105.727707,6.901835 
	C105.279633,6.913889 105.102707,6.852385 104.769577,6.592473 
	C104.077965,6.589776 103.542564,6.785485 102.663895,7.040907 
	C100.754341,7.458139 99.188080,7.815660 97.323654,8.174242 
	C96.694611,8.376216 96.363739,8.577127 95.824287,8.938169 
	C95.274773,9.116168 94.933838,9.134034 94.206131,9.130549 
	C93.197548,9.478812 92.575729,9.848425 91.709961,10.454792 
	C86.589241,13.111020 81.712486,15.530495 76.550964,17.989170 
	C75.859390,18.386574 75.452591,18.744780 75.036484,19.060787 
	C75.027176,19.018589 75.098564,19.067301 74.723312,19.052715 
	C73.594765,19.767721 72.841469,20.497314 71.955978,21.479107 
	C71.007973,22.174072 70.192177,22.616838 69.161125,22.774662 
	C67.951645,21.900902 66.957428,21.312084 65.756607,20.535233 
	C65.186478,20.283264 64.822945,20.219330 64.323357,20.203674 
	C64.187294,20.251953 64.005020,20.027994 63.765865,19.749634 
	C62.810879,19.366327 62.095043,19.261383 60.999718,19.222679 
	C53.414501,18.188976 46.208782,17.089031 38.612854,15.877626 
	C31.817364,15.858941 25.412083,15.951716 18.747379,15.993714 
	C18.326687,16.013998 18.165417,16.085056 17.638187,16.121235 
	C-0.537838,20.145021 -0.580276,30.304855 6.610056,41.589863 
	C11.107618,48.648647 17.478672,54.513725 23.315437,61.047062 
	C25.281723,62.348568 26.941629,63.517456 28.601536,64.686340 
	C28.763050,62.657578 28.055174,61.366867 27.252691,60.137936 
	C24.809326,56.396122 21.821072,52.914482 19.958130,48.907040 
	C14.124037,36.357121 19.023108,26.537876 32.583309,24.130987 
	C38.884651,23.012520 45.454514,23.406881 51.911236,23.093908 
	C51.919819,23.072361 51.885963,23.095701 52.060474,23.269638 
	C52.815384,23.290237 53.395786,23.136900 54.396477,23.009911 
	C58.554630,24.089888 62.292492,25.143517 65.872520,26.481987 
	C63.476349,29.511312 61.238014,32.255798 58.841698,35.275986 
	C57.987064,36.224823 57.290409,36.897953 56.686405,37.674072 
	C56.779053,37.777065 56.552212,37.617977 56.276192,37.804001 
	C47.108524,51.134747 43.179859,65.610603 45.293999,81.363716 
	C47.036079,94.344505 51.938583,105.746620 64.410316,112.752472 
	C72.182770,119.312614 80.725464,123.155800 90.544281,124.386879 
	C104.553177,126.143326 117.917984,123.508141 131.202759,119.142303 
	C131.555099,119.416748 131.792053,119.467506 132.354401,119.670570 
	C145.095581,122.379097 157.537476,124.811913 169.962677,127.327309 
	C171.684097,127.675789 173.322937,128.432358 175.000000,129.000000 
z"/>
<path fill="#F8FAFA" opacity="1.000000" stroke="none" 
	d="
M218.000000,37.000000 
	C218.000000,67.558075 218.000000,98.116150 218.000000,129.000000 
	C207.648056,129.000000 197.292679,129.000000 186.511597,128.598969 
	C191.199081,127.015900 196.422928,126.172684 201.392166,124.549881 
	C205.748322,123.127289 209.690826,120.286781 210.260986,115.380905 
	C211.515305,104.588409 207.562256,95.739510 198.993408,89.003525 
	C198.999542,89.001083 198.996094,89.013390 198.892685,88.746056 
	C198.310349,88.183815 197.831421,87.888908 197.176239,87.794159 
	C197.117523,87.861504 197.235046,87.728699 197.250320,87.356216 
	C196.837753,86.980591 196.527435,86.844650 196.185425,86.773331 
	C196.153748,86.837959 196.279297,86.767540 196.174561,86.504654 
	C195.737305,86.085197 195.404755,85.928635 194.846985,85.502731 
	C192.485168,84.083000 190.348587,82.932617 187.473862,81.384811 
	C190.458511,86.544792 193.256989,90.596748 195.245361,95.013412 
	C197.911926,100.936546 197.605331,106.795341 192.275009,111.348892 
	C190.465805,112.894440 188.109802,113.799873 185.621338,114.997902 
	C170.330078,119.567825 155.586777,116.461388 141.025406,113.753189 
	C147.320908,108.426109 153.419708,103.385666 159.927917,98.261009 
	C161.500198,98.116638 162.680588,97.897896 163.822830,98.024124 
	C168.458984,98.536469 170.449814,96.584076 171.348145,91.907547 
	C172.944992,83.594788 175.440567,75.458382 177.372147,67.204201 
	C178.047150,64.319740 179.286575,63.121689 182.426575,63.155445 
	C190.908890,63.246651 199.397858,63.037155 207.877426,62.748379 
	C209.270325,62.700943 211.611099,61.907494 211.846786,61.017426 
	C213.606781,54.370602 214.947113,47.612656 216.248627,40.582314 
	C214.052505,38.852005 212.026733,37.428925 210.349854,35.964687 
	C213.132523,36.282356 215.566254,36.641178 218.000000,37.000000 
z"/>
<path fill="#FFFFFF" opacity="1.000000" stroke="none" 
	d="
M218.000000,36.531342 
	C215.566254,36.641178 213.132523,36.282356 209.935272,35.911819 
	C208.354965,35.729958 207.538162,35.559814 206.389343,35.233253 
	C203.070374,35.295677 200.083435,35.514523 196.636780,35.762100 
	C193.121246,35.753906 190.065414,35.716972 186.993561,35.436794 
	C186.718399,34.804985 186.459274,34.416424 186.202347,33.634575 
	C186.391434,32.761536 186.578339,32.281780 186.831848,31.686111 
	C186.973373,31.404800 187.011520,31.231302 187.000473,30.699638 
	C187.118073,29.905945 187.248062,29.462318 187.725891,29.003624 
	C189.316986,27.383457 191.381409,25.897678 191.635513,24.148853 
	C192.194305,20.303255 191.838226,16.324724 191.776855,12.029231 
	C191.983505,10.428019 192.268845,9.198027 192.692825,7.651917 
	C192.554306,5.223866 192.277145,3.111933 192.000000,1.000000 
	C200.605042,1.000000 209.210068,1.000000 218.000000,1.000000 
	C218.000000,12.686912 218.000000,24.374798 218.000000,36.531342 
z"/>
<path fill="#228B3C" opacity="1.000000" stroke="none" 
	d="
M198.987305,89.005951 
	C207.562256,95.739510 211.515305,104.588409 210.260986,115.380905 
	C209.690826,120.286781 205.748322,123.127289 201.392166,124.549881 
	C196.422928,126.172684 191.199081,127.015900 186.042938,128.598969 
	C182.638718,129.000000 179.277420,129.000000 175.458069,129.000000 
	C173.322937,128.432358 171.684097,127.675789 169.962677,127.327309 
	C157.537476,124.811913 145.095581,122.379097 132.884048,119.566345 
	C138.528030,119.357689 143.963013,119.288040 149.362564,119.691849 
	C161.234222,120.579681 172.920761,124.241943 185.405014,121.999634 
	C188.073151,121.555313 190.412491,121.345398 192.581528,120.623627 
	C203.156647,117.104668 205.743454,113.650261 204.941223,103.975662 
	C204.783478,102.073166 203.912292,100.191162 203.164581,98.384796 
	C201.856125,95.223755 200.388336,92.128670 198.987305,89.005951 
z"/>
<path fill="#FFFFFF" opacity="1.000000" stroke="none" 
	d="
M135.995056,5.217546 
	C135.996674,4.092861 135.998306,2.968175 135.999969,1.421744 
	C143.020950,1.000000 150.041901,1.000000 157.579407,1.373120 
	C159.197418,3.388399 160.298859,5.030558 161.444824,6.914900 
	C161.448898,7.504406 161.290222,7.784833 160.762268,8.227728 
	C160.485016,8.896333 160.458801,9.335574 160.529327,9.841896 
	C160.626053,9.908978 160.603607,10.143332 160.186920,10.118439 
	C158.070679,11.342720 156.371140,12.591894 154.442932,13.811122 
	C154.214279,13.781176 153.992752,13.376621 153.969360,13.168314 
	C153.640884,12.887351 153.335800,12.814694 152.846863,12.763769 
	C152.663025,12.785501 152.299133,12.853683 152.137695,12.645411 
	C151.597275,12.104658 151.218262,11.772179 150.898071,11.075426 
	C151.171127,9.665407 151.385406,8.619660 151.737167,6.902937 
	C149.870926,7.916715 148.623657,8.594254 147.041290,9.203990 
	C143.135803,7.829972 139.565430,6.523758 135.995056,5.217546 
z"/>
<path fill="#F8FAFA" opacity="1.000000" stroke="none" 
	d="
M161.400299,6.672716 
	C160.298859,5.030558 159.197418,3.388399 158.047989,1.373120 
	C169.020889,1.000000 180.041794,1.000000 191.531342,1.000000 
	C192.277145,3.111933 192.554306,5.223866 192.570618,7.624973 
	C192.309769,7.914146 192.059708,7.919787 191.991074,7.589625 
	C189.962097,6.130159 188.001755,5.000853 185.809128,3.581955 
	C180.384903,3.181990 175.192963,3.071617 169.670807,2.864030 
	C168.891251,2.834108 168.441910,2.901400 167.583359,2.883718 
	C163.901428,2.080803 161.996216,3.401062 161.400299,6.672716 
z"/>
<path fill="#A7231F" opacity="1.000000" stroke="none" 
	d="
M153.992752,13.376621 
	C153.992752,13.376621 154.214279,13.781176 154.615662,14.033047 
	C156.338867,15.073786 157.660675,15.862655 159.245972,16.884430 
	C161.978210,21.057980 164.446976,24.998621 166.944382,29.318642 
	C169.189926,43.732384 163.814850,54.534756 152.500900,63.011642 
	C150.161667,64.341278 148.141113,65.603836 145.739349,66.934471 
	C128.084656,73.936729 109.711342,75.441231 91.580887,77.434258 
	C90.602852,86.944504 93.276939,92.683853 100.065018,96.476486 
	C101.080147,97.570198 101.989143,98.825272 103.016624,98.931213 
	C107.996986,99.444771 113.009148,99.649933 118.391571,99.928055 
	C124.411285,97.318558 130.033600,94.709518 135.700806,92.201920 
	C136.860352,91.688843 138.188202,91.556145 139.382462,91.587311 
	C142.126022,94.040161 144.925598,96.153839 147.765472,98.270538 
	C147.805756,98.273560 147.863892,98.217407 148.144852,98.452271 
	C150.336090,98.565292 152.246384,98.443451 154.462967,98.345230 
	C155.176178,98.325569 155.583099,98.282295 156.096741,98.333824 
	C156.203491,98.428627 156.623428,98.437851 156.623428,98.437851 
	C156.623428,98.437851 156.956100,98.196648 157.385071,98.199417 
	C158.382202,98.249870 158.950348,98.297546 159.518494,98.345222 
	C153.419708,103.385666 147.320908,108.426109 140.695648,113.833237 
	C137.134964,115.805237 134.100739,117.410545 131.066513,119.015854 
	C117.917984,123.508141 104.553177,126.143326 90.544281,124.386879 
	C80.725464,123.155800 72.182770,119.312614 64.376053,112.416473 
	C62.345303,109.321854 60.693222,106.666306 58.992775,103.646027 
	C49.553654,82.408890 51.993729,62.463634 64.660728,43.924896 
	C69.172272,37.322060 75.539604,31.987232 81.403114,26.012356 
	C83.287758,25.001944 84.821602,24.040321 86.371674,23.105602 
	C96.771751,16.834183 107.707802,12.036835 120.395264,10.889465 
	C131.442062,9.420984 142.015076,8.852077 152.299133,12.853683 
	C152.299133,12.853683 152.663025,12.785501 153.043335,12.989173 
	C153.613342,13.254104 153.803040,13.315362 153.992752,13.376621 
M128.697540,50.920368 
	C130.594452,49.663239 132.606796,48.547825 134.362640,47.117516 
	C137.397293,44.645496 139.008743,41.376537 137.607834,37.529018 
	C136.164093,33.563858 133.386688,30.912533 127.912605,31.037617 
	C114.468582,32.497581 105.048531,39.984692 97.696915,51.645340 
	C96.827454,53.543148 95.957993,55.440956 94.944832,57.652439 
	C98.780022,57.383106 101.621643,57.539330 104.288040,56.929451 
	C112.228653,55.113235 120.100433,52.996078 128.697540,50.920368 
z"/>
<path fill="#6C1415" opacity="1.000000" stroke="none" 
	d="
M81.059822,26.073593 
	C75.539604,31.987232 69.172272,37.322060 64.660728,43.924896 
	C51.993729,62.463634 49.553654,82.408890 58.638996,103.609619 
	C57.171116,103.052834 55.706493,102.383743 54.894550,101.248047 
	C49.023720,93.036263 47.686920,83.314865 46.021786,73.722237 
	C45.914246,73.102715 46.099098,72.403969 46.260498,71.770760 
	C47.496117,66.923294 48.630840,62.044655 50.055218,57.252483 
	C51.197990,53.407742 52.750221,49.686573 54.030590,45.880238 
	C54.948273,43.152096 55.717018,40.373863 56.552212,37.617977 
	C56.552212,37.617977 56.779053,37.777065 57.025146,37.767502 
	C57.847385,36.838718 58.423531,35.919498 58.999676,35.000282 
	C61.238014,32.255798 63.476349,29.511312 66.166916,26.333393 
	C67.538223,24.953176 68.457306,24.006393 69.376389,23.059608 
	C70.192177,22.616838 71.007973,22.174072 72.255234,21.412373 
	C73.393295,20.705572 74.099892,20.317707 75.159882,20.074135 
	C79.166428,20.460955 80.308174,23.082506 81.059822,26.073593 
z"/>
<path fill="#145D2C" opacity="1.000000" stroke="none" 
	d="
M23.009062,60.914440 
	C17.478672,54.513725 11.107618,48.648647 6.610056,41.589863 
	C-0.580276,30.304855 -0.537838,20.145021 17.755039,16.310804 
	C18.444845,16.763693 18.699612,16.907536 19.262451,16.977163 
	C19.696033,16.999197 19.869316,17.010847 20.279182,17.294146 
	C22.348433,18.715036 24.181099,19.864277 25.674400,21.160841 
	C24.089537,21.751352 22.863123,22.260527 21.595480,22.627155 
	C12.502717,25.256958 9.106824,30.341976 12.102550,39.233940 
	C14.007766,44.889038 17.846598,49.881763 20.700733,55.234230 
	C21.657188,57.027912 22.250021,59.015491 23.009062,60.914440 
z"/>
<path fill="#761617" opacity="1.000000" stroke="none" 
	d="
M81.403114,26.012356 
	C80.308174,23.082506 79.166428,20.460955 75.249168,19.863987 
	C74.985054,19.509542 75.098564,19.067301 75.098564,19.067301 
	C75.098564,19.067301 75.027176,19.018589 75.314980,19.019844 
	C76.013763,18.664057 76.424751,18.307014 76.835732,17.949970 
	C81.712486,15.530495 86.589241,13.111020 92.076202,10.428140 
	C93.321907,9.827122 93.957405,9.489510 94.592896,9.151899 
	C94.933838,9.134034 95.274773,9.116168 96.126404,8.953867 
	C96.965340,8.597347 97.293571,8.385263 97.621811,8.173181 
	C99.188080,7.815660 100.754341,7.458139 102.748184,7.316796 
	C103.759102,7.285610 104.342445,7.038245 104.925789,6.790881 
	C105.102707,6.852385 105.279633,6.913889 106.087051,6.962036 
	C107.441971,6.875013 108.166405,6.801349 109.061081,7.010024 
	C110.481361,6.591146 111.731400,5.889932 112.981430,5.188716 
	C113.143837,5.110597 113.306236,5.032480 113.830536,5.154346 
	C114.462349,5.235816 114.732269,5.117302 115.002197,4.998790 
	C115.440681,4.933250 115.879158,4.867709 116.716736,5.223008 
	C118.069450,7.401194 119.023071,9.158539 119.976692,10.915884 
	C107.707802,12.036835 96.771751,16.834183 86.371674,23.105602 
	C84.821602,24.040321 83.287758,25.001944 81.403114,26.012356 
z"/>
<path fill="#21893C" opacity="1.000000" stroke="none" 
	d="
M23.315437,61.047062 
	C22.250021,59.015491 21.657188,57.027912 20.700733,55.234230 
	C17.846598,49.881763 14.007766,44.889038 12.102550,39.233940 
	C9.106824,30.341976 12.502717,25.256958 21.595480,22.627155 
	C22.863123,22.260527 24.089537,21.751352 26.138472,21.162609 
	C34.220249,21.021177 41.500675,20.941448 48.774628,21.122246 
	C49.833160,21.148556 50.860748,22.420113 51.902653,23.115456 
	C45.454514,23.406881 38.884651,23.012520 32.583309,24.130987 
	C19.023108,26.537876 14.124037,36.357121 19.958130,48.907040 
	C21.821072,52.914482 24.809326,56.396122 27.252691,60.137936 
	C28.055174,61.366867 28.763050,62.657578 28.601536,64.686340 
	C26.941629,63.517456 25.281723,62.348568 23.315437,61.047062 
z"/>
<path fill="#196832" opacity="1.000000" stroke="none" 
	d="
M131.202759,119.142303 
	C134.100739,117.410545 137.134964,115.805237 140.498947,114.119881 
	C155.586777,116.461388 170.330078,119.567825 185.611725,115.354034 
	C185.655563,117.806084 185.326645,119.902092 184.997726,121.998093 
	C172.920761,124.241943 161.234222,120.579681 149.362564,119.691849 
	C143.963013,119.288040 138.528030,119.357689 132.579483,119.316803 
	C131.792053,119.467506 131.555099,119.416748 131.202759,119.142303 
z"/>
<path fill="#6F1C1B" opacity="1.000000" stroke="none" 
	d="
M56.276192,37.804001 
	C55.717018,40.373863 54.948273,43.152096 54.030590,45.880238 
	C52.750221,49.686573 51.197990,53.407742 50.055218,57.252483 
	C48.630840,62.044655 47.496117,66.923294 46.260498,71.770760 
	C46.099098,72.403969 45.914246,73.102715 46.021786,73.722237 
	C47.686920,83.314865 49.023720,93.036263 54.894550,101.248047 
	C55.706493,102.383743 57.171116,103.052834 58.687363,103.974350 
	C60.693222,106.666306 62.345303,109.321854 64.031647,112.313393 
	C51.938583,105.746620 47.036079,94.344505 45.293999,81.363716 
	C43.179859,65.610603 47.108524,51.134747 56.276192,37.804001 
z"/>
<path fill="#1A6B34" opacity="1.000000" stroke="none" 
	d="
M51.911236,23.093908 
	C50.860748,22.420113 49.833160,21.148556 48.774628,21.122246 
	C41.500675,20.941448 34.220249,21.021177 26.477835,21.015285 
	C24.181099,19.864277 22.348433,18.715036 20.742535,17.287380 
	C26.980555,16.669006 32.991810,16.329046 39.003063,15.989086 
	C46.208782,17.089031 53.414501,18.188976 61.265503,19.468124 
	C62.608868,19.774218 63.306942,19.901106 64.005020,20.027994 
	C64.005020,20.027994 64.187294,20.251953 64.514923,20.420856 
	C65.216110,20.634262 65.589661,20.678764 65.963211,20.723267 
	C66.957428,21.312084 67.951645,21.900902 69.161125,22.774666 
	C68.457306,24.006393 67.538223,24.953176 66.324753,26.048553 
	C62.292492,25.143517 58.554630,24.089888 54.046650,22.990534 
	C52.813011,22.995108 52.349487,23.045404 51.885963,23.095701 
	C51.885963,23.095701 51.919819,23.072361 51.911236,23.093908 
z"/>
<path fill="#811F1F" opacity="1.000000" stroke="none" 
	d="
M120.395264,10.889465 
	C119.023071,9.158539 118.069450,7.401194 117.044998,5.286525 
	C123.026215,5.050108 129.078262,5.171015 135.562683,5.254734 
	C139.565430,6.523758 143.135803,7.829972 147.141586,9.555911 
	C148.664413,10.463657 149.751846,10.951679 150.839264,11.439699 
	C151.218262,11.772179 151.597275,12.104658 152.137695,12.645411 
	C142.015076,8.852077 131.442062,9.420984 120.395264,10.889465 
z"/>
<path fill="#1E6A2C" opacity="1.000000" stroke="none" 
	d="
M38.612854,15.877626 
	C32.991810,16.329046 26.980555,16.669006 20.505949,17.015732 
	C19.869316,17.010847 19.696033,16.999197 19.262764,16.746801 
	C19.002773,16.506054 19.006802,16.044491 19.006802,16.044491 
	C25.412083,15.951716 31.817364,15.858941 38.612854,15.877626 
z"/>
<path fill="#811F1F" opacity="1.000000" stroke="none" 
	d="
M112.645599,5.160028 
	C111.731400,5.889932 110.481361,6.591146 109.105911,6.721930 
	C109.214912,5.841041 109.449333,5.530585 109.683762,5.220129 
	C110.559097,5.190532 111.434425,5.160935 112.645599,5.160028 
z"/>
<path fill="#6F1C1B" opacity="1.000000" stroke="none" 
	d="
M58.841698,35.275986 
	C58.423531,35.919498 57.847385,36.838718 56.932503,37.664513 
	C57.290409,36.897953 57.987064,36.224823 58.841698,35.275986 
z"/>
<path fill="#F8FAFA" opacity="1.000000" stroke="none" 
	d="
M109.285934,5.158989 
	C109.449333,5.530585 109.214912,5.841041 108.935654,6.439592 
	C108.166405,6.801349 107.441971,6.875013 106.358200,6.888476 
	C106.961945,6.251467 107.925034,5.674658 109.285934,5.158989 
z"/>
<path fill="#F8FAFA" opacity="1.000000" stroke="none" 
	d="
M74.723312,19.052715 
	C75.098564,19.067301 74.985054,19.509542 74.895767,19.719692 
	C74.099892,20.317707 73.393295,20.705572 72.387436,21.160172 
	C72.841469,20.497314 73.594765,19.767721 74.723312,19.052715 
z"/>
<path fill="#F8FAFA" opacity="1.000000" stroke="none" 
	d="
M104.769577,6.592474 
	C104.342445,7.038245 103.759102,7.285610 103.091461,7.257084 
	C103.542564,6.785485 104.077965,6.589776 104.769577,6.592474 
z"/>
<path fill="#F8FAFA" opacity="1.000000" stroke="none" 
	d="
M63.765865,19.749634 
	C63.306942,19.901106 62.608868,19.774218 61.645000,19.401884 
	C62.095043,19.261383 62.810879,19.366327 63.765865,19.749634 
z"/>
<path fill="#F8FAFA" opacity="1.000000" stroke="none" 
	d="
M94.206131,9.130548 
	C93.957405,9.489510 93.321907,9.827122 92.320168,10.191385 
	C92.575729,9.848425 93.197548,9.478812 94.206131,9.130548 
z"/>
<path fill="#F8FAFA" opacity="1.000000" stroke="none" 
	d="
M76.550964,17.989170 
	C76.424751,18.307014 76.013763,18.664057 75.324287,19.062042 
	C75.452591,18.744780 75.859390,18.386574 76.550964,17.989170 
z"/>
<path fill="#21893C" opacity="1.000000" stroke="none" 
	d="
M52.060474,23.269638 
	C52.349487,23.045404 52.813011,22.995108 53.626358,22.964186 
	C53.395786,23.136900 52.815384,23.290237 52.060474,23.269638 
z"/>
<path fill="#F8FAFA" opacity="1.000000" stroke="none" 
	d="
M65.756607,20.535233 
	C65.589661,20.678764 65.216110,20.634262 64.650986,20.372578 
	C64.822945,20.219330 65.186478,20.283264 65.756607,20.535233 
z"/>
<path fill="#811F1F" opacity="1.000000" stroke="none" 
	d="
M114.748749,4.928719 
	C114.732269,5.117302 114.462349,5.235816 114.097313,5.197928 
	C114.166565,4.980568 114.330933,4.919609 114.748749,4.928719 
z"/>
<path fill="#1A6B34" opacity="1.000000" stroke="none" 
	d="
M18.747379,15.993714 
	C19.006802,16.044491 19.002773,16.506054 19.002460,16.736416 
	C18.699612,16.907536 18.444845,16.763693 18.120998,16.345682 
	C18.165417,16.085056 18.326687,16.013998 18.747379,15.993714 
z"/>
<path fill="#F8FAFA" opacity="1.000000" stroke="none" 
	d="
M97.323654,8.174242 
	C97.293571,8.385263 96.965340,8.597347 96.334976,8.793735 
	C96.363739,8.577127 96.694611,8.376216 97.323654,8.174242 
z"/>
<path fill="#0F6AA5" opacity="1.000000" stroke="none" 
	d="
M159.927917,98.261009 
	C158.950348,98.297546 158.382202,98.249870 157.143097,98.163635 
	C156.472122,98.125076 155.990005,98.239014 155.990005,98.239014 
	C155.583099,98.282295 155.176178,98.325569 154.025452,98.247833 
	C151.475723,98.157013 149.669815,98.187210 147.863892,98.217407 
	C147.863892,98.217407 147.805756,98.273560 147.885818,97.874664 
	C150.989166,86.553246 154.012466,75.630722 156.976547,64.922058 
	C155.117859,64.037865 153.968735,63.491211 152.819595,62.944557 
	C163.814850,54.534756 169.189926,43.732384 166.972198,28.898659 
	C168.340515,21.420994 169.709656,14.742687 171.539001,8.047149 
	C178.686020,7.993207 185.372864,7.956497 192.059708,7.919787 
	C192.059708,7.919787 192.309769,7.914146 192.431976,7.941091 
	C192.268845,9.198027 191.983505,10.428019 191.521088,12.341862 
	C190.022049,18.356709 188.700058,23.687702 187.378082,29.018694 
	C187.248062,29.462318 187.118073,29.905945 186.858093,30.783100 
	C186.543839,31.424318 186.556229,31.619450 186.765259,31.802025 
	C186.578339,32.281780 186.391434,32.761536 186.047058,33.933979 
	C185.935059,35.071434 185.980499,35.516197 185.747864,36.226372 
	C185.372284,38.161526 185.274796,39.831268 185.213013,40.889538 
	C196.046753,40.889538 206.232864,40.889538 216.418976,40.889538 
	C214.947113,47.612656 213.606781,54.370602 211.846786,61.017426 
	C211.611099,61.907494 209.270325,62.700943 207.877426,62.748379 
	C199.397858,63.037155 190.908890,63.246651 182.426575,63.155445 
	C179.286575,63.121689 178.047150,64.319740 177.372147,67.204201 
	C175.440567,75.458382 172.944992,83.594788 171.348145,91.907547 
	C170.449814,96.584076 168.458984,98.536469 163.822830,98.024124 
	C162.680588,97.897896 161.500198,98.116638 159.927917,98.261009 
z"/>
<path fill="#145D2C" opacity="1.000000" stroke="none" 
	d="
M185.405014,121.999634 
	C185.326645,119.902092 185.655563,117.806084 185.994064,115.353958 
	C188.109802,113.799873 190.465805,112.894440 192.275009,111.348892 
	C197.605331,106.795341 197.911926,100.936546 195.245361,95.013412 
	C193.256989,90.596748 190.458511,86.544792 187.473862,81.384811 
	C190.348587,82.932617 192.485168,84.083000 194.949493,85.770500 
	C195.611252,86.460930 195.945267,86.614235 196.279297,86.767540 
	C196.279297,86.767540 196.153748,86.837959 196.253510,87.046844 
	C196.686386,87.369118 197.019470,87.482506 197.352570,87.595901 
	C197.235046,87.728699 197.117523,87.861504 197.199600,88.109520 
	C197.931503,88.487610 198.463791,88.750504 198.996094,89.013390 
	C198.996094,89.013390 198.999542,89.001083 198.993423,89.003517 
	C200.388336,92.128670 201.856125,95.223755 203.164581,98.384796 
	C203.912292,100.191162 204.783478,102.073166 204.941223,103.975662 
	C205.743454,113.650261 203.156647,117.104668 192.581528,120.623627 
	C190.412491,121.345398 188.073151,121.555313 185.405014,121.999634 
z"/>
<path fill="#0E557F" opacity="1.000000" stroke="none" 
	d="
M216.248627,40.582314 
	C206.232864,40.889538 196.046753,40.889538 185.213013,40.889538 
	C185.274796,39.831268 185.372284,38.161526 186.004303,36.192390 
	C186.695755,35.822010 186.852676,35.751026 187.009598,35.680038 
	C190.065414,35.716972 193.121246,35.753906 196.774414,36.163746 
	C200.488297,36.154327 203.604843,35.771999 206.721375,35.389671 
	C207.538162,35.559814 208.354965,35.729958 209.586349,35.952972 
	C212.026733,37.428925 214.052505,38.852005 216.248627,40.582314 
z"/>
<path fill="#228B3C" opacity="1.000000" stroke="none" 
	d="
M198.892685,88.746056 
	C198.463791,88.750504 197.931503,88.487610 197.375854,87.909363 
	C197.831421,87.888908 198.310349,88.183815 198.892685,88.746056 
z"/>
<path fill="#228B3C" opacity="1.000000" stroke="none" 
	d="
M196.174561,86.504654 
	C195.945267,86.614235 195.611252,86.460930 195.174713,86.039856 
	C195.404755,85.928635 195.737305,86.085197 196.174561,86.504654 
z"/>
<path fill="#228B3C" opacity="1.000000" stroke="none" 
	d="
M197.250320,87.356209 
	C197.019470,87.482506 196.686386,87.369118 196.285202,86.982216 
	C196.527435,86.844650 196.837753,86.980591 197.250320,87.356209 
z"/>
<path fill="#F8FAFA" opacity="1.000000" stroke="none" 
	d="
M187.725891,29.003624 
	C188.700058,23.687702 190.022049,18.356709 191.599792,12.713083 
	C191.838226,16.324724 192.194305,20.303255 191.635513,24.148853 
	C191.381409,25.897678 189.316986,27.383457 187.725891,29.003624 
z"/>
<path fill="#F8FAFA" opacity="1.000000" stroke="none" 
	d="
M206.389343,35.233253 
	C203.604843,35.771999 200.488297,36.154327 197.234131,36.135010 
	C200.083435,35.514523 203.070374,35.295677 206.389343,35.233253 
z"/>
<path fill="#F8FAFA" opacity="1.000000" stroke="none" 
	d="
M186.993561,35.436794 
	C186.852676,35.751026 186.695755,35.822010 186.282394,35.926979 
	C185.980499,35.516197 185.935059,35.071434 186.044891,34.327263 
	C186.459274,34.416424 186.718399,34.804985 186.993561,35.436794 
z"/>
<path fill="#F8FAFA" opacity="1.000000" stroke="none" 
	d="
M186.831848,31.686113 
	C186.556229,31.619450 186.543839,31.424318 186.870483,31.133171 
	C187.011520,31.231302 186.973373,31.404800 186.831848,31.686113 
z"/>
<path fill="#10496D" opacity="1.000000" stroke="none" 
	d="
M171.078796,8.064381 
	C169.709656,14.742687 168.340515,21.420994 166.943558,28.519283 
	C164.446976,24.998621 161.978210,21.057980 159.342667,16.536165 
	C159.651794,14.017772 160.127701,12.080550 160.603607,10.143331 
	C160.603607,10.143332 160.626053,9.908978 160.753159,9.599672 
	C160.924606,8.859699 160.968933,8.429031 161.013275,7.998364 
	C161.290222,7.784833 161.448898,7.504406 161.444824,6.914900 
	C161.996216,3.401062 163.901428,2.080803 167.485504,3.166315 
	C168.890823,5.044051 169.984818,6.554215 171.078796,8.064381 
z"/>
<path fill="#F8FAFA" opacity="1.000000" stroke="none" 
	d="
M160.186905,10.118438 
	C160.127701,12.080550 159.651794,14.017772 159.079193,16.303259 
	C157.660675,15.862655 156.338867,15.073786 154.844330,14.062992 
	C156.371140,12.591894 158.070679,11.342720 160.186905,10.118438 
z"/>
<path fill="#F8FAFA" opacity="1.000000" stroke="none" 
	d="
M150.898071,11.075427 
	C149.751846,10.951679 148.664413,10.463657 147.476685,9.623714 
	C148.623657,8.594254 149.870926,7.916715 151.737167,6.902937 
	C151.385406,8.619660 151.171127,9.665407 150.898071,11.075427 
z"/>
<path fill="#F8FAFA" opacity="1.000000" stroke="none" 
	d="
M153.969360,13.168314 
	C153.803040,13.315362 153.613342,13.254104 153.227173,12.967442 
	C153.335800,12.814694 153.640884,12.887351 153.969360,13.168314 
z"/>
<path fill="#F8FAFA" opacity="1.000000" stroke="none" 
	d="
M160.762253,8.227728 
	C160.968933,8.429031 160.924606,8.859699 160.656433,9.532591 
	C160.458801,9.335574 160.485016,8.896333 160.762253,8.227728 
z"/>
<path fill="#115680" opacity="1.000000" stroke="none" 
	d="
M171.538986,8.047148 
	C169.984818,6.554215 168.890823,5.044051 167.894699,3.251289 
	C168.441910,2.901400 168.891251,2.834108 169.955109,3.168647 
	C175.726883,3.670834 180.884155,3.771191 186.041412,3.871547 
	C188.001755,5.000853 189.962097,6.130159 191.991074,7.589625 
	C185.372864,7.956497 178.686020,7.993207 171.538986,8.047148 
z"/>
<path fill="#10496D" opacity="1.000000" stroke="none" 
	d="
M185.809128,3.581955 
	C180.884155,3.771191 175.726883,3.670834 170.285324,3.265860 
	C175.192963,3.071617 180.384903,3.181990 185.809128,3.581955 
z"/>
<path fill="#FAF7F6" opacity="1.000000" stroke="none" 
	d="
M100.013489,96.108200 
	C93.276939,92.683853 90.602852,86.944504 91.580887,77.434258 
	C109.711342,75.441231 128.084656,73.936729 145.712494,67.342010 
	C145.041946,71.201454 144.017014,74.721436 142.641022,78.118889 
	C141.080002,78.059006 139.612549,77.696869 138.699921,78.250069 
	C129.712540,83.697823 120.817322,89.297630 111.609879,95.030777 
	C107.553688,95.507568 103.783592,95.807884 100.013489,96.108200 
z"/>
<path fill="#0F4668" opacity="1.000000" stroke="none" 
	d="
M142.992065,78.241409 
	C144.017014,74.721436 145.041946,71.201454 146.093719,67.273941 
	C148.141113,65.603836 150.161667,64.341278 152.500900,63.011642 
	C153.968735,63.491211 155.117859,64.037865 156.976547,64.922058 
	C154.012466,75.630722 150.989166,86.553246 147.845520,97.871643 
	C144.925598,96.153839 142.126022,94.040161 139.572815,91.282806 
	C140.876816,86.506546 141.934448,82.373978 142.992065,78.241409 
z"/>
<path fill="#F6F1F0" opacity="1.000000" stroke="none" 
	d="
M97.992920,51.013275 
	C105.048531,39.984692 114.468582,32.497581 128.413834,31.509075 
	C128.946335,33.697777 128.977600,35.415024 128.576538,37.164856 
	C122.180969,36.035114 119.469688,38.870869 119.071510,44.565975 
	C119.037743,45.048855 118.928452,45.526459 118.595955,46.229885 
	C111.731941,48.757858 105.250923,51.618851 97.992920,51.013275 
z"/>
<path fill="#721618" opacity="1.000000" stroke="none" 
	d="
M142.641037,78.118889 
	C141.934448,82.373978 140.876816,86.506546 139.628845,90.943619 
	C138.188202,91.556145 136.860352,91.688843 135.700806,92.201920 
	C130.033600,94.709518 124.411285,97.318558 118.342606,99.557297 
	C116.782646,96.560394 115.223419,94.489792 111.895966,94.854309 
	C120.817322,89.297630 129.712540,83.697823 138.699921,78.250069 
	C139.612549,77.696869 141.080002,78.059006 142.641037,78.118889 
z"/>
<path fill="#791718" opacity="1.000000" stroke="none" 
	d="
M97.844917,51.329308 
	C105.250923,51.618851 111.731941,48.757858 118.944870,46.170467 
	C121.228912,45.157970 122.905739,44.428261 124.718201,44.070393 
	C125.902267,46.626991 126.950691,48.811749 127.999107,50.996506 
	C120.100433,52.996078 112.228653,55.113235 104.288040,56.929451 
	C101.621643,57.539330 98.780022,57.383106 94.944832,57.652439 
	C95.957993,55.440956 96.827454,53.543148 97.844917,51.329308 
z"/>
<path fill="#6D1516" opacity="1.000000" stroke="none" 
	d="
M128.348328,50.958439 
	C126.950691,48.811749 125.902267,46.626991 124.784546,44.091003 
	C124.715256,43.739773 124.800774,43.842186 124.993591,43.827282 
	C125.282242,43.730732 125.378075,43.649086 125.473907,43.567436 
	C125.319145,43.387779 125.164398,43.208122 125.165070,42.739273 
	C126.549950,40.677475 127.779396,38.904873 129.008850,37.132271 
	C128.977600,35.415024 128.946335,33.697777 128.825058,31.558746 
	C133.386688,30.912533 136.164093,33.563858 137.607834,37.529018 
	C139.008743,41.376537 137.397293,44.645496 134.362640,47.117516 
	C132.606796,48.547825 130.594452,49.663239 128.348328,50.958439 
z"/>
<path fill="#7E1718" opacity="1.000000" stroke="none" 
	d="
M111.609879,95.030777 
	C115.223419,94.489792 116.782646,96.560394 117.961075,99.593613 
	C113.009148,99.649933 107.996986,99.444771 103.016624,98.931213 
	C101.989143,98.825272 101.080147,97.570198 100.065018,96.476486 
	C103.783592,95.807884 107.553688,95.507568 111.609879,95.030777 
z"/>
<path fill="#0F4668" opacity="1.000000" stroke="none" 
	d="
M148.144852,98.452271 
	C149.669815,98.187210 151.475723,98.157013 153.719147,98.224213 
	C152.246384,98.443451 150.336090,98.565292 148.144852,98.452271 
z"/>
<path fill="#0F4668" opacity="1.000000" stroke="none" 
	d="
M156.096741,98.333817 
	C155.990005,98.239014 156.472122,98.125076 156.714111,98.160858 
	C156.956100,98.196648 156.623428,98.437851 156.623428,98.437851 
	C156.623428,98.437851 156.203491,98.428627 156.096741,98.333817 
z"/>
<path fill="#215778" opacity="1.000000" stroke="none" 
	d="
M128.576538,37.164856 
	C127.779396,38.904873 126.549950,40.677475 125.047668,42.925785 
	C124.774834,43.401493 124.800774,43.842186 124.800774,43.842186 
	C124.800774,43.842186 124.715256,43.739773 124.648911,43.719162 
	C122.905739,44.428261 121.228912,45.157970 119.203171,45.947094 
	C118.928452,45.526459 119.037743,45.048855 119.071510,44.565975 
	C119.469688,38.870869 122.180969,36.035114 128.576538,37.164856 
z"/>
<path fill="#791718" opacity="1.000000" stroke="none" 
	d="
M124.993591,43.827282 
	C124.800774,43.842186 124.774834,43.401493 124.892242,43.214981 
	C125.164398,43.208122 125.319145,43.387779 125.473907,43.567436 
	C125.378075,43.649086 125.282242,43.730732 124.993591,43.827282 
z"/>
</svg>