<?xml version="1.0" encoding="UTF-8" standalone="no"?>
<svg
   version="1.1"
   width="271.15659"
   height="131.79115"
   viewBox="0 0 271.15656 131.79115"
   xml:space="preserve"
   id="svg2"
   sodipodi:docname="logo.svg"
   inkscape:version="1.4.3 (0d15f75042, 2025-12-25)"
   xmlns:inkscape="http://www.inkscape.org/namespaces/inkscape"
   xmlns:sodipodi="http://sodipodi.sourceforge.net/DTD/sodipodi-0.dtd"
   xmlns="http://www.w3.org/2000/svg"
   xmlns:svg="http://www.w3.org/2000/svg"><sodipodi:namedview
   id="namedview2"
   pagecolor="#ffffff"
   bordercolor="#000000"
   borderopacity="0"
   inkscape:showpageshadow="false"
   inkscape:pageopacity="0.0"
   inkscape:pagecheckerboard="0"
   inkscape:deskcolor="#d1d1d1"
   inkscape:zoom="1.4703125"
   inkscape:cx="161.19022"
   inkscape:cy="183.29437"
   inkscape:window-width="1660"
   inkscape:window-height="761"
   inkscape:window-x="20"
   inkscape:window-y="20"
   inkscape:window-maximized="0"
   inkscape:current-layer="svg2" />
<desc
   id="desc1">Created with Fabric.js 5.3.0</desc>
<defs
   id="defs1">
</defs>

<g
   transform="matrix(1.9211538,0,0,1.9211538,135.87567,65.895576)"
   id="text-logo">
<g
   paint-order="stroke"
   id="g2">
		<g
   id="text-logo-path-0">
<filter
   id="SVGID_584815"
   y="-0.34482759"
   height="1.6896552"
   x="-0.12822948"
   width="1.2537091">
	<feGaussianBlur
   in="SourceAlpha"
   stdDeviation="5"
   id="feGaussianBlur1" />
	<feOffset
   dx="0"
   dy="0"
   result="oBlur"
   id="feOffset1" />
	<feFlood
   flood-color="rgb(255,254,254)"
   flood-opacity="1"
   id="feFlood1" />
	<feComposite
   in2="oBlur"
   operator="in"
   id="feComposite1" />
	<feMerge
   id="feMerge2">
		<feMergeNode
   id="feMergeNode1" />
		<feMergeNode
   in="SourceGraphic"
   id="feMergeNode2" />
	</feMerge>
</filter>
<path
   style="opacity:1;fill:#000000;fill-rule:nonzero;stroke:#ffffff;stroke-width:4;stroke-linecap:butt;stroke-linejoin:miter;stroke-miterlimit:4;stroke-dasharray:none;stroke-dashoffset:0;filter:url(#SVGID_584815)"
   paint-order="stroke"
   transform="translate(-58.67,20.3)"
   d="M 2.38,0 H 12.7 l 2.73,-13.51 h 5.62 L 25.58,0 H 38.4 l -5.8,-13.51 8,-6.79 2.2,-11.19 -6.26,-9.11 H 10.44 Z M 15.66,-32.25 H 32.6 l -2.03,10.38 H 17.11 l 0.99,-5.27 z M 39.79,0 h 10.38 l 3.42,-17.11 h 20.13 l 1.51,-7.71 H 55.16 l 1.56,-8.07 h 19.55 l 1.51,-7.71 H 47.91 Z m 34.74,0 h 24.94 l 10.79,-7.89 4.7,-23.6 -6.27,-9.11 h -26.1 z m 12.01,-8.35 3.71,-18.79 -2.44,-5.11 h 16.94 l -4.76,23.9 z"
   stroke-linecap="round"
   id="path2" />
</g>
</g>
</g>
</svg>
