<svg version="1.1" id="Layer_1" xmlns="http://www.w3.org/2000/svg" xmlns:xlink="http://www.w3.org/1999/xlink" x="0px" y="0px"
	 width="100%" viewBox="0 0 225 225" enable-background="new 0 0 225 225" xml:space="preserve">
<path fill="#FEFEFE" opacity="1.000000" stroke="none" 
	d="
M131.000000,226.000000 
	C87.333336,226.000000 44.166672,226.000000 1.000006,226.000000 
	C1.000004,151.000000 1.000004,76.000015 1.000002,1.000016 
	C75.999992,1.000011 150.999985,1.000011 225.999969,1.000005 
	C225.999985,75.999985 225.999985,150.999969 226.000000,225.999969 
	C194.500000,226.000000 163.000000,226.000000 131.000000,226.000000 
M205.999115,146.154572 
	C205.961456,124.051758 205.923782,101.948944 206.025986,78.941948 
	C206.047226,77.448471 205.944382,75.941116 206.109619,74.463745 
	C207.279327,64.004715 202.485321,57.521362 193.409744,52.552563 
	C170.284271,39.891560 147.553604,26.511141 124.548622,13.626293 
	C121.347908,11.833607 117.490730,11.212985 113.132660,9.913174 
	C110.437317,10.622757 107.443260,10.801295 105.092529,12.123538 
	C79.787422,26.357170 54.562473,40.734005 29.369602,55.165939 
	C24.130388,58.167271 21.146931,62.849380 20.944639,68.983612 
	C20.824472,72.627541 21.052839,76.282951 20.944981,80.869118 
	C20.988392,102.904495 21.031805,124.939873 20.923742,147.897934 
	C18.928221,161.175446 24.552649,169.497330 36.388115,175.821457 
	C59.341782,188.086395 81.611137,201.627747 104.290520,214.415894 
	C107.025185,215.957886 110.542313,216.112198 114.538193,217.079147 
	C116.911507,216.415863 119.542603,216.204620 121.618912,215.020523 
	C147.139908,200.466370 172.599609,185.804153 198.023911,171.081406 
	C203.126984,168.126328 205.813644,163.441040 206.036758,157.542175 
	C206.168198,154.066940 205.918289,150.577301 205.999115,146.154572 
z"/>
<path fill="#12619A" opacity="1.000000" stroke="none" 
	d="
M21.124500,79.933205 
	C21.052839,76.282951 20.824472,72.627541 20.944639,68.983612 
	C21.146931,62.849380 24.130388,58.167271 29.369602,55.165939 
	C54.562473,40.734005 79.787422,26.357170 105.092529,12.123538 
	C107.443260,10.801295 110.437317,10.622757 113.548950,10.446806 
	C113.952660,39.527733 113.940079,68.075027 113.576401,96.724327 
	C103.134521,102.306068 93.043755,107.785805 82.598854,113.175873 
	C61.871319,102.035210 41.497910,90.984207 21.124500,79.933205 
z"/>
<path fill="#98897B" opacity="1.000000" stroke="none" 
	d="
M113.696785,216.909668 
	C110.542313,216.112198 107.025185,215.957886 104.290520,214.415894 
	C81.611137,201.627747 59.341782,188.086395 36.388115,175.821457 
	C24.552649,169.497330 18.928221,161.175446 21.347677,147.403809 
	C32.803722,140.807693 43.782337,134.606262 54.884403,128.634323 
	C64.216087,123.614716 73.691513,118.862335 83.435860,114.081070 
	C93.779678,119.552834 103.790947,124.935173 113.810333,130.765564 
	C113.777893,159.778976 113.737343,188.344330 113.696785,216.909668 
z"/>
<path fill="#2E7DD2" opacity="1.000000" stroke="none" 
	d="
M113.927505,96.622322 
	C113.940079,68.075027 113.952660,39.527733 113.951340,10.515114 
	C117.490730,11.212985 121.347908,11.833607 124.548622,13.626293 
	C147.553604,26.511141 170.284271,39.891560 193.409744,52.552563 
	C202.485321,57.521362 207.279327,64.004715 206.109619,74.463745 
	C205.944382,75.941116 206.047226,77.448471 205.612900,79.472214 
	C184.815750,91.120087 164.431671,102.237686 143.720779,113.190231 
	C133.571808,107.557556 123.749657,102.089943 113.927505,96.622322 
z"/>
<path fill="#F89820" opacity="1.000000" stroke="none" 
	d="
M114.117493,216.994415 
	C113.737343,188.344330 113.777893,159.778976 114.145981,130.584473 
	C124.280174,124.591072 134.086823,119.226830 144.258011,113.924171 
	C150.179443,116.944748 155.755371,119.868675 161.289597,122.869484 
	C176.149216,130.926788 190.991028,139.016998 205.839905,147.094131 
	C205.918289,150.577301 206.168198,154.066940 206.036758,157.542175 
	C205.813644,163.441040 203.126984,168.126328 198.023911,171.081406 
	C172.599609,185.804153 147.139908,200.466370 121.618912,215.020523 
	C119.542603,216.204620 116.911507,216.415863 114.117493,216.994415 
z"/>
<path fill="#FAC179" opacity="1.000000" stroke="none" 
	d="
M205.919510,146.624359 
	C190.991028,139.016998 176.149216,130.926788 161.289597,122.869484 
	C155.755371,119.868675 150.179443,116.944748 144.279114,113.792137 
	C143.935669,113.598518 144.047607,113.355286 144.047607,113.355286 
	C164.431671,102.237686 184.815750,91.120087 205.542969,79.924301 
	C205.923782,101.948944 205.961456,124.051758 205.919510,146.624359 
z"/>
<path fill="#71675C" opacity="1.000000" stroke="none" 
	d="
M83.103302,113.991653 
	C73.691513,118.862335 64.216087,123.614716 54.884403,128.634323 
	C43.782337,134.606262 32.803722,140.807693 21.423414,146.942474 
	C21.031805,124.939873 20.988392,102.904495 21.034740,80.401161 
	C41.497910,90.984207 61.871319,102.035210 82.643326,113.355476 
	C83.041916,113.624748 83.103302,113.991653 83.103302,113.991653 
z"/>
<path fill="#FDFDFD" opacity="1.000000" stroke="none" 
	d="
M83.435860,114.081078 
	C83.103302,113.991653 83.041916,113.624748 82.997452,113.445145 
	C93.043755,107.785805 103.134521,102.306068 113.576401,96.724327 
	C123.749657,102.089943 133.571808,107.557556 143.720779,113.190231 
	C144.047607,113.355286 143.935669,113.598518 143.914581,113.730553 
	C134.086823,119.226830 124.280174,124.591072 114.137863,130.136414 
	C103.790947,124.935173 93.779678,119.552834 83.435860,114.081078 
z"/>
</svg>