<?xml version="1.0" encoding="UTF-8"?>
<svg id="logosandtypes_com" data-name="logosandtypes com" xmlns="http://www.w3.org/2000/svg" viewBox="0 0 150 150">
  <defs>
    <style>
      .cls-1 {
        fill: #0054a6;
        fill-rule: evenodd;
      }

      .cls-2 {
        fill: none;
      }
    </style>
  </defs>
  <path class="cls-2" d="M0,0H150V150H0V0Z"/>
  <path class="cls-1" d="M142.06,50.5l-3.51,1.61c2.61,7.17,4.02,14.9,4.02,22.96,0,37.13-30.1,67.23-67.23,67.23-21.7,0-42.06-10.48-54.68-28.14l21.95-16.46c1.01-.69,2.25-1,3.55-.82,1.38,.2,2.55,.92,3.32,1.95l10.79,14.5c3.8,4.66,9.32,7.97,15.79,8.87,13.6,1.9,26.22-7.52,28.2-21.04,.91-6.29-.63-12.37-3.92-17.26-4.63-6.33-13.78-10.02-21.63-11.74-7.85-1.73-12.63-3.07-16.44-5.13-4.36-2.36-7.78-9.31-6.44-15.33,2.1-9.45,10.54-16.26,20.19-14.91,4.82,.68,8.9,3.23,11.59,6.82l10.68,14.03c6.1,7.86,12.97,10.2,20.43,6.49l3.63-1.72c.3-.14,.67-.42,1.26-.23,.59,.19,.88,.7,1.22,1.3,.33,.6,.68,1.15,1.31,1.3,.63,.15,1.5,.05,1.9-.34,2.77-2.64,8.38-8.01,8.38-8.01,1.52-1.3,1.07-2.49,1.07-2.49l-2.09-4.76s-.57-1.14-2.55-.88l-11.62,1.07c-.68,.1-1.28,.55-1.54,1.23-.16,.4-.17,.82-.05,1.2l.42,1.34c.08,.28,.08,.59-.03,.88-.14,.35-.4,.6-.73,.74l-3.28,1.39c-3.79,1.29-7.35,.73-9.96-2.46l-2.98-3.96-8.5-11.27c-4.03-5.35-10.11-9.17-17.3-10.17-14.38-2.01-27.73,7.95-29.82,22.25-1.05,7.21-.06,13.3,5.38,19.53,5.45,6.23,16.04,8.6,25.21,10.7,.98,.23,3.74,.91,5.38,1.5,1.51,.55,4.99,1.83,7.82,4.14,2.86,2.91,4.58,6.88,4.58,11.14,0,.77-.06,1.56-.17,2.34-1.28,8.78-9.47,14.89-18.3,13.65-4.42-.61-8.16-2.96-10.63-6.24l-10.2-13.54c-2.08-2.76-5.22-4.73-8.94-5.26-3.71-.52-7.3,.51-10.09,2.6l-21.3,15.89c-2.64-4.9-4.66-10.09-6.01-15.44-1.35-5.36-2.05-10.89-2.05-16.46C8.12,37.95,38.22,7.85,75.35,7.85c28.17,0,52.29,17.32,62.29,41.9l3.31-1.54,2.32-6.34,2.43,.85-2.09,5.67,5.79,2-.88,2.37-6.47-2.26Z"/>
</svg>